<svg width="36" height="36" viewBox="0 0 36 36" fill="none" xmlns="http://www.w3.org/2000/svg">
<path d="M8.98439 7.39341C9.42373 7.83275 9.42373 8.54506 8.98439 8.9844C4.0052 13.9636 4.0052 22.0364 8.98439 27.0156C9.42373 27.455 9.42373 28.1673 8.98439 28.6066C8.54505 29.046 7.83274 29.046 7.3934 28.6066C1.53553 22.7487 1.53553 13.2513 7.3934 7.39341C7.83274 6.95407 8.54505 6.95407 8.98439 7.39341ZM28.6066 7.39341C34.4645 13.2513 34.4645 22.7487 28.6066 28.6066C28.1673 29.046 27.455 29.046 27.0156 28.6066C26.5763 28.1673 26.5763 27.455 27.0156 27.0156C31.9948 22.0364 31.9948 13.9636 27.0156 8.9844C26.5763 8.54506 26.5763 7.83275 27.0156 7.39341C27.455 6.95407 28.1673 6.95407 28.6066 7.39341ZM13.227 11.636C13.6664 12.0754 13.6664 12.7877 13.227 13.227C10.591 15.8631 10.591 20.1369 13.227 22.773C13.6664 23.2123 13.6664 23.9246 13.227 24.364C12.7877 24.8033 12.0754 24.8033 11.636 24.364C8.12132 20.8493 8.12132 15.1508 11.636 11.636C12.0754 11.1967 12.7877 11.1967 13.227 11.636ZM24.364 11.636C27.8787 15.1508 27.8787 20.8493 24.364 24.364C23.9246 24.8033 23.2123 24.8033 22.773 24.364C22.3336 23.9246 22.3336 23.2123 22.773 22.773C25.409 20.1369 25.409 15.8631 22.773 13.227C22.3336 12.7877 22.3336 12.0754 22.773 11.636C23.2123 11.1967 23.9246 11.1967 24.364 11.636ZM18 15.75C19.2426 15.75 20.25 16.7574 20.25 18C20.25 19.2427 19.2426 20.25 18 20.25C16.7574 20.25 15.75 19.2427 15.75 18C15.75 16.7574 16.7574 15.75 18 15.75Z" fill="url(#paint0_linear_173_101)"/>
<defs>
<linearGradient id="paint0_linear_173_101" x1="18" y1="7.0639" x2="18" y2="28.9361" gradientUnits="userSpaceOnUse">
<stop stop-color="white" stop-opacity="0.33"/>
<stop offset="1" stop-color="#8D8D8D"/>
</linearGradient>
</defs>
</svg>
