<svg width="13" height="13" viewBox="0 0 13 13" fill="none" xmlns="http://www.w3.org/2000/svg">
<path d="M10.965 1.85715H10.1589C10.1421 1.85715 10.1272 1.86292 10.1116 1.8667V1.02026C10.1116 0.457641 9.64347 0 9.06795 0H2.07586C1.50035 0 1.03223 0.457641 1.03223 1.02026V10.5353C1.03223 11.0979 1.50035 11.5556 2.07586 11.5556H3.30207V12.0162C3.30207 12.5587 3.75225 13 4.30581 13H10.965C11.5186 13 11.9687 12.5587 11.9687 12.0162V2.84093C11.9687 2.29846 11.5186 1.85715 10.965 1.85715ZM1.44492 10.5353V1.02026C1.44492 0.685344 1.72805 0.412709 2.07586 0.412709H9.06795C9.41576 0.412709 9.6989 0.685344 9.6989 1.02026V10.5353C9.6989 10.8702 9.41576 11.1429 9.06795 11.1429H2.07586C1.72805 11.1429 1.44492 10.8702 1.44492 10.5353ZM11.556 12.0162C11.556 12.3312 11.2909 12.5873 10.965 12.5873H4.30581C3.97996 12.5873 3.71476 12.3312 3.71476 12.0162V11.5556H9.06795C9.64347 11.5556 10.1116 11.0979 10.1116 10.5353V2.26029C10.1272 2.26407 10.1421 2.26984 10.1589 2.26984H10.965C11.2909 2.26984 11.556 2.52596 11.556 2.84093V12.0162Z" fill="white"/>
</svg>
