<svg width="25" height="25" viewBox="0 0 25 25" fill="none" xmlns="http://www.w3.org/2000/svg">
<path fill-rule="evenodd" clip-rule="evenodd" d="M14.8883 4.47178C14.5832 4.77688 14.5832 5.26793 14.5832 6.25002C14.5832 7.23211 14.5832 7.72316 14.8883 8.02826C15.1934 8.33335 15.6844 8.33335 16.6665 8.33335H18.7498C19.7319 8.33335 20.223 8.33335 20.5281 8.02826C20.8332 7.72316 20.8332 7.23211 20.8332 6.25002C20.8332 5.26793 20.8332 4.77688 20.5281 4.47178C20.223 4.16669 19.7319 4.16669 18.7498 4.16669H16.6665C15.6844 4.16669 15.1934 4.16669 14.8883 4.47178ZM4.4716 16.9718C4.1665 17.2769 4.1665 17.7679 4.1665 18.75C4.1665 19.7321 4.1665 20.2231 4.4716 20.5282C4.7767 20.8334 5.26774 20.8334 6.24984 20.8334H8.33317C9.31526 20.8334 9.80631 20.8334 10.1114 20.5282C10.4165 20.2231 10.4165 19.7321 10.4165 18.75C10.4165 17.7679 10.4165 17.2769 10.1114 16.9718C9.80631 16.6667 9.31526 16.6667 8.33317 16.6667H6.24984C5.26774 16.6667 4.7767 16.6667 4.4716 16.9718ZM14.5832 14.5834C14.5832 13.6013 14.5832 13.1102 14.8883 12.8051C15.1934 12.5 15.6844 12.5 16.6665 12.5H18.7498C19.7319 12.5 20.223 12.5 20.5281 12.8051C20.8332 13.1102 20.8332 13.6013 20.8332 14.5834V18.75C20.8332 19.7321 20.8332 20.2231 20.5281 20.5282C20.223 20.8334 19.7319 20.8334 18.7498 20.8334H16.6665C15.6844 20.8334 15.1934 20.8334 14.8883 20.5282C14.5832 20.2231 14.5832 19.7321 14.5832 18.75V14.5834ZM4.4716 4.47178C4.1665 4.77688 4.1665 5.26793 4.1665 6.25002V10.4167C4.1665 11.3988 4.1665 11.8898 4.4716 12.1949C4.7767 12.5 5.26774 12.5 6.24984 12.5H8.33317C9.31526 12.5 9.80631 12.5 10.1114 12.1949C10.4165 11.8898 10.4165 11.3988 10.4165 10.4167V6.25002C10.4165 5.26793 10.4165 4.77688 10.1114 4.47178C9.80631 4.16669 9.31526 4.16669 8.33317 4.16669H6.24984C5.26774 4.16669 4.7767 4.16669 4.4716 4.47178Z" fill="#BCBCBC"/>
<path fill-rule="evenodd" clip-rule="evenodd" d="M5.02405 5.02423L5.02658 5.02281C5.02859 5.02175 5.03205 5.02007 5.0373 5.01791C5.05999 5.00858 5.11037 4.99264 5.21095 4.97912C5.43046 4.94961 5.73671 4.94795 6.24984 4.94795H8.33318C8.84631 4.94795 9.15256 4.94961 9.37207 4.97912C9.47264 4.99264 9.52302 5.00858 9.54571 5.01791C9.55097 5.02007 9.55441 5.02175 9.55644 5.02281L9.55897 5.02423L9.5604 5.02677C9.56146 5.02878 9.56314 5.03224 9.5653 5.03749C9.57463 5.06018 9.59056 5.11056 9.60409 5.21114C9.6336 5.43064 9.63526 5.7369 9.63526 6.25003V10.4167C9.63526 10.9298 9.6336 11.2361 9.60409 11.4555C9.59056 11.5562 9.57463 11.6066 9.5653 11.6292C9.56314 11.6345 9.56146 11.6379 9.5604 11.6399L9.55897 11.6425L9.55644 11.6439C9.55441 11.645 9.55097 11.6467 9.54571 11.6488C9.52302 11.6581 9.47264 11.6741 9.37207 11.6876C9.15256 11.7171 8.84631 11.7188 8.33318 11.7188H6.24984C5.73671 11.7188 5.43046 11.7171 5.21095 11.6876C5.11037 11.6741 5.05999 11.6581 5.0373 11.6488C5.03205 11.6467 5.02859 11.645 5.02658 11.6439L5.02405 11.6425L5.02261 11.6399C5.02156 11.6379 5.01987 11.6345 5.01772 11.6292C5.00838 11.6066 4.99246 11.5562 4.97893 11.4555C4.94941 11.2361 4.94776 10.9298 4.94776 10.4167V6.25003C4.94776 5.7369 4.94941 5.43064 4.97893 5.21114C4.99246 5.11056 5.00838 5.06018 5.01772 5.03749C5.01987 5.03224 5.02156 5.02878 5.02261 5.02677L5.02405 5.02423ZM6.20323 3.38544C6.21873 3.38545 6.23426 3.38545 6.24984 3.38545H8.33318C8.34876 3.38545 8.36429 3.38545 8.37979 3.38544C8.83063 3.38539 9.24401 3.38535 9.58027 3.43056C9.95056 3.48034 10.3419 3.59747 10.6638 3.91937C10.9858 4.24126 11.1029 4.63265 11.1527 5.00294C11.1979 5.3392 11.1979 5.75258 11.1978 6.20342C11.1978 6.21892 11.1978 6.23445 11.1978 6.25003V10.4167C11.1978 10.4323 11.1978 10.4478 11.1978 10.4634C11.1979 10.9142 11.1979 11.3275 11.1527 11.6638C11.1029 12.0341 10.9858 12.4254 10.6638 12.7473C10.3419 13.0693 9.95056 13.1864 9.58027 13.2362C9.244 13.2814 8.83063 13.2814 8.37978 13.2813C8.36429 13.2813 8.34876 13.2813 8.33318 13.2813H6.24984C6.23426 13.2813 6.21873 13.2813 6.20324 13.2813C5.75238 13.2814 5.33901 13.2814 5.00275 13.2362C4.63246 13.1864 4.24108 13.0693 3.91918 12.7473C3.59728 12.4254 3.48014 12.0341 3.43036 11.6638C3.38515 11.3275 3.3852 10.9142 3.38526 10.4634C3.38526 10.4478 3.38526 10.4323 3.38526 10.4167V6.25003C3.38526 6.23445 3.38526 6.21891 3.38526 6.20342C3.3852 5.75257 3.38515 5.3392 3.43036 5.00294C3.48014 4.63265 3.59728 4.24126 3.91918 3.91937C4.24108 3.59747 4.63246 3.48034 5.00275 3.43056C5.33901 3.38535 5.75237 3.38539 6.20323 3.38544ZM15.4433 5.02281L15.4407 5.02423L15.4393 5.02677C15.4383 5.02878 15.4365 5.03224 15.4344 5.03749C15.4251 5.06018 15.4091 5.11056 15.3956 5.21114C15.3661 5.43064 15.3644 5.7369 15.3644 6.25003C15.3644 6.76316 15.3661 7.06942 15.3956 7.28892C15.4091 7.3895 15.4251 7.43988 15.4344 7.46257C15.4353 7.46467 15.4367 7.46805 15.4367 7.46805C15.4378 7.47036 15.4393 7.47329 15.4393 7.47329L15.4407 7.47583L15.4433 7.47726C15.4453 7.47832 15.4487 7.47999 15.454 7.48216C15.4766 7.49149 15.527 7.50742 15.6277 7.52094C15.8471 7.55045 16.1534 7.55212 16.6665 7.55212H18.7498C19.263 7.55212 19.5692 7.55045 19.7887 7.52094C19.8893 7.50742 19.9397 7.49149 19.9623 7.48216C19.9677 7.47999 19.9711 7.47832 19.9731 7.47726L19.9757 7.47583L19.977 7.47329C19.9781 7.47127 19.9798 7.46783 19.9819 7.46257C19.9913 7.43988 20.0072 7.3895 20.0208 7.28892C20.0503 7.06942 20.0519 6.76316 20.0519 6.25003C20.0519 5.7369 20.0503 5.43064 20.0208 5.21114C20.0072 5.11056 19.9913 5.06018 19.9819 5.03749C19.9798 5.03224 19.9781 5.02878 19.977 5.02677L19.9757 5.02423L19.9731 5.02281C19.9711 5.02175 19.9677 5.02007 19.9623 5.01791C19.9397 5.00858 19.8893 4.99264 19.7887 4.97912C19.5692 4.94961 19.263 4.94795 18.7498 4.94795H16.6665C16.1534 4.94795 15.8471 4.94961 15.6277 4.97912C15.527 4.99264 15.4766 5.00858 15.454 5.01791C15.4487 5.02007 15.4453 5.02175 15.4433 5.02281ZM16.6199 3.38544H18.7964C19.2473 3.38539 19.6607 3.38535 19.9969 3.43056C20.3672 3.48034 20.7586 3.59747 21.0805 3.91937C21.4024 4.24126 21.5195 4.63265 21.5693 5.00294C21.6145 5.3392 21.6145 5.75257 21.6144 6.20342V6.29664C21.6145 6.74749 21.6145 7.16086 21.5693 7.49712C21.5195 7.86742 21.4024 8.2588 21.0805 8.58069C20.7586 8.9026 20.3672 9.01972 19.9969 9.06951C19.6607 9.11472 19.2473 9.11467 18.7964 9.11462H16.6199C16.169 9.11467 15.7557 9.11472 15.4194 9.06951C15.0491 9.01972 14.6578 8.9026 14.3359 8.58069C14.0139 8.2588 13.8968 7.86742 13.847 7.49712C13.8018 7.16086 13.8018 6.74749 13.8019 6.29664C13.8019 6.28115 13.8019 6.26561 13.8019 6.25003C13.8019 6.23445 13.8019 6.21892 13.8019 6.20342C13.8018 5.75258 13.8018 5.3392 13.847 5.00294C13.8968 4.63265 14.0139 4.24126 14.3359 3.91937C14.6578 3.59747 15.0491 3.48034 15.4194 3.43056C15.7557 3.38535 16.169 3.38539 16.6199 3.38544ZM16.6199 11.7188H18.7964C19.2473 11.7188 19.6607 11.7187 19.9969 11.7639C20.3672 11.8137 20.7586 11.9308 21.0805 12.2527C21.4024 12.5746 21.5195 12.966 21.5693 13.3363C21.6145 13.6725 21.6145 14.0859 21.6144 14.5368V18.7967C21.6145 19.2475 21.6145 19.6609 21.5693 19.9971C21.5195 20.3674 21.4024 20.7588 21.0805 21.0807C20.7586 21.4026 20.3672 21.5197 19.9969 21.5695C19.6607 21.6147 19.2473 21.6147 18.7964 21.6146H16.6199C16.169 21.6147 15.7557 21.6147 15.4194 21.5695C15.0491 21.5197 14.6578 21.4026 14.3359 21.0807C14.0139 20.7588 13.8968 20.3674 13.847 19.9971C13.8018 19.6609 13.8018 19.2475 13.8019 18.7967V14.5834C13.8019 14.5678 13.8019 14.5522 13.8019 14.5368C13.8018 14.0859 13.8018 13.6725 13.847 13.3363C13.8968 12.966 14.0139 12.5746 14.3359 12.2527C14.6578 11.9308 15.0491 11.8137 15.4194 11.7639C15.7557 11.7187 16.169 11.7188 16.6199 11.7188ZM15.4433 13.3562L15.4407 13.3575L15.4393 13.3601C15.4383 13.3621 15.4365 13.3655 15.4344 13.3709C15.4251 13.3936 15.4091 13.4439 15.3956 13.5445C15.3661 13.764 15.3644 14.0702 15.3644 14.5834V18.75C15.3644 19.2632 15.3661 19.5694 15.3956 19.7889C15.4091 19.8895 15.4251 19.9399 15.4344 19.9625C15.4365 19.9678 15.4383 19.9713 15.4393 19.9733L15.4407 19.9759L15.4433 19.9772C15.4453 19.9784 15.4487 19.98 15.454 19.9821C15.4766 19.9915 15.527 20.0074 15.6277 20.021C15.8471 20.0504 16.1534 20.0521 16.6665 20.0521H18.7498C19.263 20.0521 19.5692 20.0504 19.7887 20.021C19.8893 20.0074 19.9397 19.9915 19.9623 19.9821C19.9677 19.98 19.9711 19.9784 19.9731 19.9772L19.9757 19.9759L19.977 19.9733C19.9781 19.9713 19.9798 19.9678 19.9819 19.9625C19.9913 19.9399 20.0072 19.8895 20.0208 19.7889C20.0503 19.5694 20.0519 19.2632 20.0519 18.75V14.5834C20.0519 14.0702 20.0503 13.764 20.0208 13.5445C20.0072 13.4439 19.9913 13.3936 19.9819 13.3709C19.9807 13.3677 19.9795 13.3652 19.9787 13.3633L19.977 13.3601L19.9757 13.3575L19.9731 13.3562C19.9711 13.3551 19.9677 13.3534 19.9623 13.3513C19.9397 13.3419 19.8893 13.326 19.7887 13.3124C19.5692 13.2829 19.263 13.2813 18.7498 13.2813H16.6665C16.1534 13.2813 15.8471 13.2829 15.6277 13.3124C15.527 13.326 15.4766 13.3419 15.454 13.3513C15.4487 13.3534 15.4453 13.3551 15.4433 13.3562ZM5.02658 17.5228L5.02405 17.5242L5.02261 17.5268C5.02156 17.5288 5.01987 17.5322 5.01772 17.5375C5.00838 17.5602 4.99245 17.6105 4.97893 17.7112C4.94941 17.9307 4.94776 18.2369 4.94776 18.75C4.94776 19.2632 4.94941 19.5694 4.97893 19.7889C4.99245 19.8895 5.00838 19.9399 5.01772 19.9625C5.01987 19.9678 5.02156 19.9713 5.02261 19.9733L5.02405 19.9759L5.02658 19.9772C5.02859 19.9784 5.03205 19.98 5.0373 19.9821C5.05999 19.9915 5.11037 20.0074 5.21095 20.021C5.43046 20.0504 5.73671 20.0521 6.24984 20.0521H8.33318C8.84631 20.0521 9.15256 20.0504 9.37207 20.021C9.47264 20.0074 9.52302 19.9915 9.54571 19.9821C9.54836 19.9811 9.55234 19.9793 9.55234 19.9793L9.55644 19.9772L9.55897 19.9759L9.5604 19.9733L9.56193 19.9702C9.56285 19.9683 9.56399 19.9658 9.5653 19.9625C9.57463 19.9399 9.59056 19.8895 9.60409 19.7889C9.6336 19.5694 9.63526 19.2632 9.63526 18.75C9.63526 18.2369 9.6336 17.9307 9.60409 17.7112C9.59056 17.6105 9.57463 17.5602 9.5653 17.5375C9.56314 17.5322 9.56146 17.5288 9.5604 17.5268L9.55897 17.5242L9.55644 17.5228C9.55441 17.5218 9.55097 17.52 9.54571 17.5179C9.52302 17.5086 9.47264 17.4926 9.37207 17.4791C9.15256 17.4496 8.84631 17.4479 8.33318 17.4479H6.24984C5.73671 17.4479 5.43046 17.4496 5.21095 17.4791C5.11037 17.4926 5.05999 17.5086 5.0373 17.5179C5.03205 17.52 5.02859 17.5218 5.02658 17.5228ZM6.20324 15.8854H8.37978C8.83063 15.8854 9.244 15.8853 9.58027 15.9305C9.95056 15.9803 10.3419 16.0974 10.6638 16.4194C10.9858 16.7413 11.1029 17.1326 11.1527 17.5029C11.1979 17.8392 11.1979 18.2525 11.1978 18.7035V18.7967C11.1979 19.2475 11.1979 19.6609 11.1527 19.9971C11.1029 20.3674 10.9858 20.7588 10.6638 21.0807C10.3419 21.4026 9.95056 21.5197 9.58027 21.5695C9.244 21.6147 8.83063 21.6147 8.37978 21.6146H6.20323C5.75238 21.6147 5.33901 21.6147 5.00275 21.5695C4.63246 21.5197 4.24108 21.4026 3.91918 21.0807C3.59728 20.7588 3.48014 20.3674 3.43036 19.9971C3.38515 19.6609 3.3852 19.2475 3.38526 18.7967V18.7035C3.3852 18.2525 3.38515 17.8392 3.43036 17.5029C3.48014 17.1326 3.59728 16.7413 3.91918 16.4194C4.24108 16.0974 4.63246 15.9803 5.00275 15.9305C5.33901 15.8853 5.75238 15.8854 6.20324 15.8854Z" fill="#BCBCBC"/>
</svg>
