<svg width="16" height="16" viewBox="0 0 16 16" fill="none" xmlns="http://www.w3.org/2000/svg">
<g clip-path="url(#clip0_758_44)">
<path d="M15.273 0H0.727752C0.326109 0 0.000488281 0.32562 0.000488281 0.727264V15.2727C0.000488281 15.6744 0.326109 16 0.727752 16H8.97008C9.37172 16 9.69734 15.6744 9.69734 15.2727C9.69734 14.8711 9.37172 14.5455 8.97008 14.5455H1.45502V8.24252H4.84891V10.909C4.84891 11.3106 5.17454 11.6362 5.57618 11.6362C5.97782 11.6362 6.30344 11.3106 6.30344 10.909V4.12116C6.30344 3.71952 5.97782 3.3939 5.57618 3.3939C5.17454 3.3939 4.84891 3.71952 4.84891 4.12116V6.78799H1.45502V1.45453H8.72766V5.09104C8.72766 5.49268 9.05328 5.81831 9.45492 5.81831H12.8488C13.2505 5.81831 13.5761 5.49268 13.5761 5.09104C13.5761 4.6894 13.2505 4.36378 12.8488 4.36378H10.1822V1.45453H14.5458V10.1819H9.45492C9.05328 10.1819 8.72766 10.5075 8.72766 10.9092C8.72766 11.3108 9.05328 11.6364 9.45492 11.6364H14.5458V14.5455H13.3337C12.932 14.5455 12.6064 14.8711 12.6064 15.2727C12.6064 15.6744 12.932 16 13.3337 16H15.273C15.6747 16 16.0003 15.6744 16.0003 15.2727V0.727264C16.0003 0.32562 15.6747 0 15.273 0Z" fill="#BCBCBC"/>
</g>
<defs>
<clipPath id="clip0_758_44">
<rect width="16" height="16" fill="white"/>
</clipPath>
</defs>
</svg>
