<svg width="20" height="20" viewBox="0 0 20 20" fill="none" xmlns="http://www.w3.org/2000/svg">
<g clip-path="url(#clip0_758_40)">
<path d="M19.0912 0H0.909568C0.407514 0 0.000488281 0.407025 0.000488281 0.90908V19.0909C0.000488281 19.593 0.407514 20 0.909568 20H11.2125C11.7145 20 12.1216 19.593 12.1216 19.0909C12.1216 18.5889 11.7145 18.1818 11.2125 18.1818H1.81865V10.3031H6.06102V13.6362C6.06102 14.1383 6.46805 14.5453 6.9701 14.5453C7.47216 14.5453 7.87918 14.1383 7.87918 13.6362V5.15145C7.87918 4.6494 7.47216 4.24237 6.9701 4.24237C6.46805 4.24237 6.06102 4.6494 6.06102 5.15145V8.48499H1.81865V1.81816H10.9094V6.3638C10.9094 6.86586 11.3165 7.27288 11.8185 7.27288H16.0609C16.563 7.27288 16.97 6.86586 16.97 6.3638C16.97 5.86175 16.563 5.45472 16.0609 5.45472H12.7276V1.81816H18.1821V12.7274H11.8185C11.3165 12.7274 10.9094 13.1344 10.9094 13.6364C10.9094 14.1385 11.3165 14.5455 11.8185 14.5455H18.1821V18.1818H16.667C16.1649 18.1818 15.7579 18.5889 15.7579 19.0909C15.7579 19.593 16.1649 20 16.667 20H19.0912C19.5932 20 20.0002 19.593 20.0002 19.0909V0.90908C20.0002 0.407025 19.5932 0 19.0912 0Z" fill="#BCBCBC"/>
</g>
<defs>
<clipPath id="clip0_758_40">
<rect width="20" height="20" fill="white"/>
</clipPath>
</defs>
</svg>
