<svg width="23" height="23" viewBox="0 0 23 23" fill="none" xmlns="http://www.w3.org/2000/svg">
<g clip-path="url(#clip0_888_36)">
<path d="M14.3756 18.2084C14.3756 19.2189 13.5937 20.0467 12.6019 20.1198L12.4589 20.1251H10.5422C9.5318 20.1251 8.70399 19.3432 8.63082 18.3515L8.62557 18.2084H14.3756ZM11.5008 1.91675C15.1285 1.91675 18.0836 4.79633 18.2052 8.39446L18.2091 8.62508V12.2322L19.9552 15.7245C20.289 16.3921 19.8426 17.1718 19.1224 17.2446L19.0124 17.2501H3.98912C3.24279 17.2501 2.74495 16.5021 3.00197 15.8254L3.04625 15.7245L4.79239 12.2322V8.62508C4.79239 4.92017 7.79581 1.91675 11.5008 1.91675Z" fill="#BCBCBC"/>
</g>
<defs>
<clipPath id="clip0_888_36">
<rect width="23" height="23" fill="white"/>
</clipPath>
</defs>
</svg>
