<svg width="27" height="27" viewBox="0 0 27 27" fill="none" xmlns="http://www.w3.org/2000/svg">
<path d="M20.1095 15.75C21.3906 15.75 22.4368 16.7574 22.4972 18.024L22.5 18.1399V18.5625C22.5 20.675 21.4078 22.2564 19.7324 23.2764C18.0849 24.2794 15.8703 24.75 13.5 24.75C11.1297 24.75 8.91512 24.2794 7.26761 23.2764C5.64296 22.2873 4.56673 20.7703 4.50299 18.7531L4.5 18.5625V18.14C4.5 16.8583 5.50853 15.8131 6.77477 15.7528L6.89057 15.75H20.1095ZM13.5 2.25C16.6066 2.25 19.125 4.7684 19.125 7.875C19.125 10.9816 16.6066 13.5 13.5 13.5C10.3934 13.5 7.875 10.9816 7.875 7.875C7.875 4.7684 10.3934 2.25 13.5 2.25Z" fill="#BCBCBC"/>
</svg>
