<svg width="254" height="275" viewBox="0 0 254 275" fill="none" xmlns="http://www.w3.org/2000/svg">
<g clip-path="url(#clip0_152_957)">
<path d="M65.7372 183.614C68.5675 186.433 73.913 187.181 78.4797 185.374C79.9437 184.789 82.7292 183.009 83.7953 181.941C84.226 181.528 85.0784 180.452 85.7146 179.562C86.7031 178.14 86.9865 177.505 87.9013 174.553C89.2501 170.248 89.8888 166.328 89.9126 162.346C89.9081 159.384 89.1925 155.23 88.2746 152.937C88.0398 152.346 88.1177 152.188 89.9292 149.134C96.5364 138 106.112 125.52 117.362 113.403C119.14 111.48 119.176 111.456 119.292 111.828C120.662 116.38 120.967 117.117 121.375 117.103C121.755 117.086 121.804 117.16 121.95 118.129C122.122 119.295 123.387 121.443 123.958 121.556C124.219 121.597 124.691 129.047 126.026 153.243C127.604 182.141 127.805 184.887 128.196 184.926C128.811 184.989 128.962 184.547 128.876 183.196C128.846 182.598 128.123 169.727 127.307 154.549C126.474 139.383 125.723 125.72 125.639 124.176C125.499 121.837 125.547 121.357 125.873 121.141C126.246 120.916 126.232 120.776 125.82 119.918C124.517 117.241 124.694 115.972 126.781 113.098C127.71 111.822 130.222 109.669 131.222 109.327L131.854 109.1L132.41 117.583C132.708 122.248 133.052 126.157 133.149 126.264C133.264 126.358 133.524 126.357 133.761 126.243C134.053 126.092 134.146 125.839 134.106 125.268C133.898 121.289 133.023 108.817 132.944 108.699C132.797 108.476 133.429 108.25 135.142 107.883C136.607 107.575 137.489 107.567 138.828 107.897L139.661 108.092L141.285 138.004C142.183 154.449 143.025 168.052 143.143 168.23C143.388 168.601 144.009 168.318 144.083 167.8C144.115 167.651 143.805 161.352 143.385 153.824C142.966 146.296 142.434 136.667 142.207 132.424C141.98 128.181 141.715 123.644 141.64 122.35L141.491 119.996L142.124 120.323C152.757 126.145 160.811 133.034 169.38 143.656C171.674 146.531 175.107 151.126 176.491 153.217L177.727 155.085L177.447 156.828C176.979 159.824 176.986 163.104 177.483 166.337C177.833 168.6 179.456 174.243 179.977 175.029C182.264 178.485 187.424 179.505 192.458 177.538C194.023 176.907 196.525 175.251 197.716 174.057C199.23 172.523 200.292 170.817 200.955 168.864C201.518 167.233 201.575 166.769 201.435 164.153C201.352 162.374 201.113 160.634 200.837 159.665C198.675 152.459 191.309 143.537 185.145 140.685C183.985 140.153 183.975 140.138 181.061 136.287C173.958 126.934 168.375 119.839 162.853 113.15C160.989 110.886 159.473 108.99 159.49 108.936C159.506 108.882 160.122 108.709 160.877 108.551C162.977 108.099 164.695 107.346 166.734 105.975C168.91 104.535 170.031 103.43 171.522 101.271C172.775 99.4604 173.753 96.723 173.74 95.089C173.721 94.5475 173.84 93.9784 174.001 93.8287C174.538 93.2603 173.596 87.9764 172.271 84.1619C168.566 73.562 159.782 65.2154 150.823 63.8521L149.506 63.6359L149.471 60.0764C149.436 56.5169 149.213 52.3989 148.929 49.9211C148.848 49.2072 148.767 48.2582 148.733 47.8119C148.59 45.9019 147.169 38.674 146.39 35.8417C144.556 29.25 142.765 25.1254 139.385 19.6639C136.696 15.3655 135.383 13.6968 132.312 10.6326C131.283 9.62907 130.416 8.75268 130.367 8.67854C130.308 8.58956 130.559 8.33821 130.921 8.09819C131.393 7.78615 131.622 7.4635 131.815 6.88805C132.198 5.65383 131.514 4.97587 129.647 4.67624L128.574 4.51227L128.2 2.88324C127.742 1.01058 127.514 0.586179 127.026 0.716746C126.76 0.786606 126.504 1.4249 126.078 2.98675L125.524 5.14454L124.389 5.83212C123.426 6.42653 123.238 6.61505 122.974 7.28016C122.701 7.93045 122.728 8.1684 123.071 8.68744C123.297 9.02851 123.699 9.35974 123.952 9.42685C124.506 9.59356 124.485 9.79904 123.905 10.1831C123.161 10.6751 120.428 13.913 119.079 15.8934C116.524 19.675 114.65 23.5809 112.996 28.6851C108.675 41.9734 108.166 59.2863 111.457 79.3084C111.789 81.3067 112.139 83.293 112.228 83.7033C112.317 84.1136 112.353 84.6015 112.323 84.7921C112.293 84.9828 112.329 85.2356 112.418 85.369C112.506 85.5025 112.733 86.3972 112.944 87.3455L113.313 89.0847L110.466 92.2695C95.1895 109.333 83.5475 126.806 78.491 140.283C77.6791 142.484 77.469 142.836 76.0719 144.508C69.4081 152.522 65.1311 160.834 63.5887 168.786C63.0478 171.554 62.8795 173.585 62.9657 176.236C63.0975 179.902 63.7444 181.628 65.7372 183.614ZM64.3686 178.08C63.911 174.907 65.0933 171.65 67.7099 168.788C68.8622 167.535 71.5654 165.788 73.3535 165.18C76.7371 164.029 80.7502 164.379 83.1964 166.066C84.5006 166.973 86.287 169.672 86.6121 171.227C87.0549 173.471 86.3893 176.642 84.9822 178.81C82.7831 182.185 78.992 184.651 75.1682 185.178C72.5636 185.537 69.7025 184.957 67.8749 183.692C66.5034 182.723 66.3396 182.555 65.4207 181.009C64.7503 179.917 64.5518 179.302 64.3686 178.08ZM64.8836 168.142C66.1301 162.028 69.3741 155.189 74.1347 148.711C75.8516 146.381 77.6832 144.145 77.8607 144.177C78.1122 144.202 79.7486 148.408 80.3742 150.574C81.1084 153.181 81.5662 155.842 81.6757 158.371C81.7688 160.442 81.5488 163.616 81.3214 163.745C81.2308 163.805 80.5963 163.713 79.8848 163.545C78.3319 163.208 75.4433 163.413 73.5616 163.998C71.818 164.555 68.7281 166.387 67.4179 167.638C66.3949 168.613 65.2486 170.033 64.8065 170.902C64.1558 172.164 64.174 171.64 64.8836 168.142ZM83.3123 162.065C84.1914 159.926 85.3032 157.548 86.5185 155.209L87.2569 153.803L87.5128 154.465C87.9135 155.543 88.5365 158.927 88.6652 160.697C88.7907 162.896 88.6123 165.936 88.1954 168.536L87.8443 170.646L87.5476 169.882C87.3929 169.451 86.7784 168.365 86.1713 167.488C85.2781 166.138 84.8832 165.738 83.9331 165.13C83.2964 164.72 82.7255 164.33 82.6387 164.238C82.5699 164.135 82.8693 163.169 83.3123 162.065ZM82.1962 152.972C81.6335 150.231 80.2569 146.024 79.2461 143.985L78.7055 142.892L79.4244 140.945C83.7114 129.3 93.5922 113.696 106.029 98.96C108.744 95.7342 113.41 90.492 113.549 90.5061C113.605 90.5118 113.82 91.3083 114.012 92.2686C114.494 94.5727 116.423 102.018 117.741 106.648L118.802 110.339L116.567 112.714C110.327 119.361 102.89 128.335 97.7065 135.434C95.0526 139.067 90.9062 145.331 88.9126 148.74C87.9679 150.346 87.1457 151.744 87.0928 151.821C86.8351 152.141 83.9404 157.853 83.5293 158.808C83.2987 159.366 83.0833 159.828 83.0289 159.864C82.9926 159.888 82.9038 158.966 82.8716 157.814C82.8115 156.66 82.5198 154.486 82.1962 152.972ZM123.068 117.219C122.898 115.071 123.981 112.413 125.983 110.001C127.451 108.24 130.264 106.186 132.558 105.201C134.935 104.182 137.408 103.782 139.46 104.045C141.643 104.349 142.846 105.024 143.847 106.537C144.475 107.486 144.579 107.801 144.619 109.161C144.668 110.259 144.531 111.117 144.178 112.118C143.695 113.398 142.528 115.3 141.654 116.263C141.35 116.592 141.312 116.574 141.287 116.143C141.25 115.89 141.478 115.249 141.766 114.738C142.446 113.521 142.776 112.129 142.74 110.852C142.669 109.406 141.599 107.79 140.278 107.172C138.37 106.259 135.128 106.443 132.247 107.646C130.702 108.306 128.256 109.968 127.083 111.149C124.468 113.818 123.378 116.544 123.897 119.101L124.104 120.201L123.624 119.24C123.354 118.714 123.117 117.805 123.068 117.219ZM120.557 111.651C118.343 104.565 116.499 97.6812 114.885 90.4752C113.547 84.5148 113.563 84.6963 114.265 83.0377C115.077 81.1137 116.395 79.0471 117.83 77.3936C118.9 76.1736 119.269 75.8651 121.735 74.2329C123.648 72.9459 124.958 72.2068 126.163 71.6647C128.703 70.5381 132.396 69.2238 132.605 69.3417C132.728 69.4095 132.937 71.3401 133.093 73.625C133.277 75.9128 133.774 83.0057 134.245 89.3904C134.706 95.7602 135.048 101.122 135.026 101.286C134.955 101.652 135.555 102.321 135.876 102.216C136.004 102.173 136.171 101.913 136.273 101.633C136.346 101.35 136.791 100.565 137.267 99.8659C139.286 96.8878 141.355 94.8142 142.911 94.2107C143.845 93.8486 145.054 93.9017 145.329 94.317C145.662 94.8212 145.045 98.8127 144.016 102.735L143.626 104.273L142.595 103.74C137.284 101.113 128.257 104.572 123.946 110.901C123.109 112.159 122.17 114.167 122.025 115.051C121.963 115.391 121.869 115.603 121.81 115.514C121.751 115.425 121.178 113.693 120.557 111.651ZM112.664 79.0431C112.366 77.2142 112.159 75.6021 112.193 75.4948C112.714 73.998 116 68.3255 116.335 68.3595C116.541 68.3941 117.178 75.7779 117.023 76.371C116.966 76.6005 116.483 77.368 115.941 78.0465C115.409 78.7398 114.583 80.0121 114.113 80.8777C113.634 81.7702 113.232 82.4628 113.222 82.448C113.203 82.4183 112.943 80.8839 112.664 79.0431ZM141.469 118.624C141.463 118.181 141.645 117.826 142.119 117.32C143.345 116.061 144.696 113.887 145.304 112.205C146.088 110.001 146.039 107.879 145.148 106.336L144.544 105.265L145.211 102.648C145.983 99.5994 146.424 97.4303 146.457 96.5343C146.481 96.177 146.535 95.8642 146.608 95.8162C146.952 95.5882 147.975 98.9847 148.484 102.039C148.675 103.234 148.879 103.739 149.645 104.896C151.118 107.162 153.091 108.33 156.188 108.754L157.82 108.975L161.433 113.408C166.286 119.323 170.291 124.35 174.887 130.308C181.625 139.07 182.25 139.936 182.176 140.177C182.095 140.529 182.467 141.051 182.83 141.087C183.054 141.11 183.011 141.714 182.651 143.338C181.796 147.167 181.544 152.815 182.068 157.309L182.252 159.085L179.798 155.613C168.555 139.809 162.577 133.102 153.778 126.387C149.167 122.848 142.687 118.927 141.946 119.226C141.488 119.401 141.478 119.386 141.469 118.624ZM111.082 66.8039C110.902 64.9179 110.965 64.3431 111.463 62.6916C111.777 61.6304 112.346 60.166 112.729 59.4437C113.484 57.9843 115.033 55.6367 115.211 55.6685C115.266 55.6742 115.37 56.501 115.452 57.4917C115.516 58.4944 115.715 60.922 115.925 62.8942L116.276 66.4579L114.769 68.6714C113.931 69.8872 112.93 71.4878 112.549 72.2517L111.855 73.6067L111.549 71.2927C111.411 70.0196 111.189 67.9909 111.082 66.8039ZM180.318 172.394C179.777 170.001 180.461 167.33 182.229 164.88C182.936 163.9 183.09 163.777 183.606 163.691C184.151 163.608 184.214 163.545 184.261 163.066C184.301 162.613 184.462 162.464 185.695 161.647C192.531 157.123 200.361 159.576 200.341 166.243C200.341 167.543 199.52 170.006 198.647 171.287C196.4 174.63 192.486 177.029 188.694 177.406C184.44 177.833 181.1 175.821 180.318 172.394ZM141.036 111.233C141.025 109.641 141.049 109.519 141.284 110.11C141.598 110.861 141.641 111.516 141.41 112.586C141.171 113.682 141.054 113.269 141.036 111.233ZM178.355 162.731C178.233 160.615 178.412 157.341 178.667 156.702C178.779 156.437 179.118 156.831 180.811 159.271C181.917 160.864 182.84 162.258 182.872 162.386C182.895 162.499 182.683 162.809 182.405 163.058C181.542 163.842 180.292 165.736 179.677 167.209L179.095 168.576L178.767 166.702C178.61 165.676 178.397 163.897 178.355 162.731ZM117.953 71.2766C117.775 69.1555 117.581 67.3647 117.531 67.2906C117.335 66.994 118.027 66.1094 119.662 64.6006C122.652 61.79 126.695 59.6256 130.453 58.8021L131.982 58.4726L132.289 62.6408C132.438 64.9526 132.608 67.1006 132.639 67.4635L132.708 68.0792L130.737 68.7653C126.665 70.1381 124.311 71.2697 121.183 73.3191C119.613 74.3364 118.316 75.1737 118.306 75.1588C118.297 75.144 118.132 73.3978 117.953 71.2766ZM110.527 53.2022C110.555 52.4163 110.769 51.9121 111.612 50.5862C112.543 49.1169 115.394 45.5451 115.492 45.6934C115.512 45.723 115.483 46.9792 115.425 48.4677C115.339 49.9533 115.311 51.763 115.301 52.4953C115.316 53.7006 115.258 53.8884 114.556 54.7582C113.043 56.5699 111.248 59.5706 111.034 60.5867C110.996 60.8041 110.865 61.04 110.774 61.1C110.611 61.208 110.425 55.5302 110.527 53.2022ZM135.179 85.6799C134.637 78.3611 134.157 71.7265 134.111 70.9469L133.995 69.5516L136.52 68.0084C137.91 67.1528 139.585 66.257 140.272 65.9944C143.229 64.8686 147.13 64.4193 150.071 64.8829C151.555 65.1161 154.208 65.8551 154.758 66.1736C154.948 66.3035 154.689 66.8169 153.516 68.5523C150.607 72.8238 147.822 78.7406 147.032 82.3134C146.313 85.5614 146.282 87.011 146.705 92.0626C146.821 93.4995 146.691 94.0121 146.338 93.4783C146.043 93.0334 144.556 92.7168 143.607 92.8975C141.8 93.2404 139.464 95.1487 137.285 98.0413C136.682 98.8243 136.182 99.3686 136.159 99.2557C136.145 99.1158 135.703 93.0108 135.179 85.6799ZM117.074 62.3047C116.918 60.8085 116.709 58.366 116.627 56.8634L116.456 54.1618L117.271 53.345C117.773 52.8423 119.156 51.8201 120.969 50.6199C123.435 48.9877 124.145 48.603 125.637 48.0207C127.368 47.3656 129.564 46.7438 130.637 46.631L131.173 46.5746L131.272 48.0235C131.32 48.8447 131.489 51.2279 131.649 53.361C131.782 55.4914 131.91 57.2616 131.902 57.2884C131.912 57.3033 131.104 57.5397 130.119 57.786C126.2 58.7592 122.592 60.6355 119.74 63.1418C118.885 63.8994 118.022 64.6837 117.816 64.8842C117.638 65.0876 117.447 65.1927 117.407 65.1334C117.378 65.0889 117.211 63.813 117.074 62.3047ZM183.402 158.261C183.007 155.301 182.883 150.82 183.142 147.94C183.361 145.513 184 141.87 184.236 141.714C184.58 141.486 187.498 143.372 189.472 145.094C193.736 148.819 198.056 155.108 199.618 159.832C199.953 160.89 199.782 161.025 199.029 160.243C197.42 158.6 193.774 157.857 190.632 158.508C188.622 158.9 186.821 159.644 185.143 160.734L184 161.49L183.853 160.99C183.76 160.732 183.567 159.495 183.402 158.261ZM110.743 47.5788C111.058 42.934 111.188 42.4214 112.877 39.5761C113.648 38.2981 116.175 35.2608 116.669 35.0617C116.834 34.9954 116.762 36.1089 116.471 38.0718C116.199 39.7876 115.928 41.8219 115.881 42.5781C115.802 43.4833 115.638 44.0616 115.369 44.3249C114.426 45.2258 112.503 47.4801 111.574 48.756C111.025 49.5029 110.598 49.9993 110.601 49.8475C110.605 49.6956 110.661 48.6775 110.743 47.5788ZM149.639 101.381C149.376 99.4862 149.459 98.706 150.124 96.7946C152.848 88.9346 163.705 84.4573 169.577 88.7597C170.473 89.4038 170.812 89.7978 171.544 91.0618C172.357 92.4862 172.44 92.7298 172.498 94.3545C172.623 97.3004 171.384 100.274 168.899 102.942C167.792 104.145 165.037 106.011 163.418 106.677C159.22 108.411 154.359 107.96 151.759 105.608C150.723 104.673 149.842 102.909 149.639 101.381ZM116.527 50.2119C116.541 49.0511 116.625 47.247 116.717 46.2048L116.872 44.311L118.368 43.0649C120.241 41.4835 123.757 39.3487 125.97 38.4382C127.406 37.8502 130.518 36.8783 130.596 36.9969C130.704 37.16 131.059 45.221 130.962 45.3495C130.881 45.4243 130.219 45.6064 129.464 45.7652C127.741 46.1166 124.937 47.1196 123.049 48.0493C121.581 48.7862 117.667 51.4618 116.979 52.1947C116.801 52.398 116.619 52.518 116.58 52.4587C116.531 52.3846 116.513 51.3727 116.527 50.2119ZM147.798 94.0688C147.903 93.6366 147.903 91.8241 147.782 90.027C147.493 86.3588 147.576 85.0666 148.232 82.3934C149.2 78.3405 151.528 73.3874 154.472 69.0502L156.05 66.7471L157.252 67.3807C162.815 70.3096 168.399 77.1702 170.984 84.2669C171.572 85.9037 172.618 89.69 172.525 89.9435C172.508 89.9972 172.325 89.7987 172.109 89.4725C170.332 86.7883 165.66 85.4023 161.385 86.2702C155.903 87.4035 150.699 91.6366 149.048 96.3122L148.762 97.1412L148.164 96.0014C147.674 95.0248 147.608 94.7275 147.798 94.0688ZM112.541 34.6163C113.166 31.8569 114.41 29.5616 116.441 27.4287C117.487 26.3309 118.846 25.1539 118.935 25.2874C118.974 25.3467 118.803 26.2703 118.526 27.3492C118.268 28.4161 117.893 30.1354 117.689 31.1663L117.319 33.0106L116.214 34.0195C114.892 35.214 113.768 36.47 112.646 38.0445C112.195 38.663 111.77 39.2426 111.709 39.3471C111.54 39.5653 111.973 37.1462 112.541 34.6163ZM133.326 60.5042C133.23 59.3737 133.232 58.3916 133.323 58.3315C133.649 58.1155 136.7 58.0368 138.433 58.2122C143.21 58.6541 147.56 60.6163 148.13 62.5419C148.236 62.8985 148.249 63.2735 148.178 63.3631C148.089 63.4648 147.396 63.5607 146.637 63.5945C143.169 63.7141 139.628 64.8639 136.095 67.0107L133.914 68.3258L133.709 65.4548C133.578 63.878 133.415 61.6615 133.326 60.5042ZM117.91 36.2665L118.375 33.4633L119.953 32.4192C121.675 31.2791 124.11 30.0727 125.779 29.5222C126.899 29.165 129.356 28.5835 129.902 28.5419C130.134 28.5377 130.268 29.4091 130.396 32.2031C130.542 35.2203 130.51 35.8812 130.215 35.9483C128.744 36.3251 126.231 37.1778 124.815 37.7954C123.042 38.5846 118.259 41.6012 117.428 42.4717C116.998 42.9264 116.997 42.8847 117.235 40.9994C117.346 39.9452 117.659 37.8185 117.91 36.2665ZM132.797 52.4948C132.636 50.0848 132.477 47.7166 132.44 47.2286L132.363 46.3629L133.159 46.3051C136.307 46.098 139.297 46.6357 141.829 47.8604C144.143 48.994 145.044 49.7631 146.692 51.9777L148.096 53.8632L148.195 57.1247C148.292 59.5558 148.237 60.3389 148.018 60.2061C145.225 58.4292 142.463 57.4854 138.979 57.1468C137.665 57.0138 135.863 56.9698 134.947 57.0431C134.031 57.1164 133.241 57.1057 133.174 57.0436C133.115 56.9546 132.94 54.9168 132.797 52.4948ZM115.439 25.1274C117.851 19.159 121.212 14.0338 124.888 10.6838C126.29 9.41444 126.464 9.08614 125.883 8.9166C125.245 8.7414 124.666 8.37837 124.695 8.14608C124.711 7.81562 125.975 7.08566 126.951 6.8662C128.073 6.59238 129.656 6.73876 129.8 7.11302C129.863 7.32697 129.711 7.49148 129.184 7.79786C128.693 8.08023 128.496 8.29557 128.522 8.49188C128.556 8.66134 129.56 9.74536 130.753 10.9176C134.292 14.3335 137.013 17.7359 138.927 21.1396L140.027 23.0773L138.575 22.1832C133.193 18.8574 125.777 19.3938 119.485 23.5582C117.89 24.6144 116.017 26.2374 114.949 27.4991C114.371 28.2016 114.335 28.2256 114.405 27.8591C114.444 27.6417 114.91 26.4159 115.439 25.1274ZM119.879 26.5176L120.417 24.1783L121.8 23.3912C123.391 22.4869 125.912 21.6074 127.777 21.3118C130.13 20.9273 129.964 20.7169 130.092 24.258C130.153 25.9661 130.13 27.3889 130.038 27.4072C126.405 28.0634 123.307 29.1751 120.481 30.8539L118.663 31.929L119.007 30.4003C119.199 29.5481 119.592 27.8168 119.879 26.5176ZM132.065 41.1857C131.941 39.0285 131.864 37.139 131.906 37.0049C132.03 36.6024 134.496 36.506 136.577 36.8134C138.722 37.0997 140.993 38.049 142.617 39.3202C143.496 40.018 144.067 40.6846 145.106 42.2149C146.754 44.6646 147.34 46.2597 147.638 49.1124L147.841 51.1531L147.135 50.3622C143.921 46.6886 138.841 44.8047 133.212 45.2036C132.786 45.2297 132.387 45.2169 132.367 45.1873C132.338 45.1428 132.217 43.3457 132.065 41.1857ZM131.539 30.9351L131.457 28.4087L132.171 28.3841C133.523 28.2995 136.54 28.8401 138.028 29.4334C140.194 30.3029 141.953 31.6984 143.513 33.7795C144.937 35.6947 145.514 37.0399 146.119 39.9237L146.467 41.5916L145.614 40.5782C144.149 38.8388 142.918 37.884 140.953 36.9242C138.78 35.888 136.09 35.4082 133.394 35.5505L131.81 35.6392L131.715 34.5504C131.666 33.9643 131.58 32.3367 131.539 30.9351ZM131.293 24.1028L131.185 21.1033L132.817 21.3238C135.7 21.7401 138.207 23.0453 140.546 25.3574C141.711 26.5269 141.838 26.7196 142.559 28.4391C142.967 29.4489 143.456 30.6606 143.622 31.1479L143.913 32.0214L142.972 31.1513C140.4 28.8018 137.743 27.7027 133.983 27.4191C132.615 27.3221 131.451 27.2182 131.422 27.1737C131.392 27.1292 131.333 25.7396 131.293 24.1028ZM126.98 4.07428C127.134 3.7163 127.152 3.70429 127.201 4.01357C127.226 4.20987 127.3 4.43867 127.349 4.51282C127.398 4.58696 127.346 4.70629 127.256 4.7663C126.966 4.95832 126.783 4.52475 126.98 4.07428Z" fill="#A0A0A0"/>
<path d="M132.464 251.177C132.638 251.126 132.847 251.009 132.937 250.907C133.026 250.805 132.685 244.42 132.185 236.732C129.379 194.081 129.658 197.693 129.145 197.627C128.735 197.6 128.663 197.648 128.563 197.97C128.463 198.292 129.434 213.665 131.646 247.027C131.788 249.172 131.956 251.001 132.025 251.105C132.084 251.194 132.289 251.229 132.464 251.177Z" fill="#A0A0A0"/>
<path d="M135.636 255.774C136.492 256.082 136.482 255.278 135.481 240.095C134.938 231.711 134.372 224.749 134.246 224.598C134.092 224.444 133.85 224.434 133.632 224.578C133.342 224.77 133.443 227.326 134.234 239.748C134.761 247.951 135.243 254.904 135.29 255.171C135.319 255.451 135.477 255.73 135.636 255.774Z" fill="#A0A0A0"/>
<path d="M138.051 250.912C138.226 250.861 138.422 250.646 138.48 250.458C138.611 249.945 137.871 239.452 137.685 239.17C137.469 238.844 136.854 239.058 136.731 239.502C136.601 240.015 137.329 250.452 137.535 250.763C137.624 250.897 137.849 250.961 138.051 250.912Z" fill="#A0A0A0"/>
<path d="M141.802 252.759C142.165 252.519 142.203 252.025 141.959 248.859C141.823 246.881 141.63 245.132 141.532 244.983C141.424 244.82 141.22 244.827 140.948 245.007C140.567 245.259 140.538 245.727 140.772 248.877C140.898 250.841 141.091 252.59 141.199 252.753C141.326 252.946 141.512 252.951 141.802 252.759Z" fill="#A0A0A0"/>
<path d="M145.459 258.165C145.634 258.114 145.83 257.898 145.888 257.71C146.037 257.186 143.446 218.722 143.26 218.44C143.034 218.099 142.42 218.314 142.315 218.746C142.266 218.948 142.749 227.202 143.402 237.092C144.054 246.982 144.636 255.66 144.681 256.398C144.763 257.901 144.954 258.308 145.459 258.165Z" fill="#A0A0A0"/>
<path d="M150.987 257.534C151.173 257.539 151.438 257.428 151.536 257.299C151.651 257.159 151.303 250.565 150.776 242.639C149.892 229.17 149.794 228.233 149.365 228.176C148.955 228.148 148.883 228.196 148.783 228.518C148.683 228.84 150.449 257.272 150.586 257.48C150.606 257.51 150.783 257.541 150.987 257.534Z" fill="#A0A0A0"/>
<path d="M148.853 251.867C149.027 251.816 149.217 251.669 149.258 251.535C149.373 251.117 147.751 227.196 147.585 226.944C147.398 226.662 146.909 226.751 146.681 227.116C146.489 227.456 148.072 251.318 148.307 251.674C148.415 251.837 148.65 251.916 148.853 251.867Z" fill="#A0A0A0"/>
<path d="M138.068 230.492C138.644 230.495 138.734 230.158 138.604 228.346C138.535 227.453 137.746 215.35 136.821 201.503C135.859 186.892 135.068 176.241 134.907 176.155C134.774 176.072 134.497 176.128 134.318 176.289C134.047 176.511 134.15 179.109 134.845 189.653C135.308 196.853 136.105 208.93 136.599 216.493C137.104 224.071 137.551 230.301 137.6 230.375C137.639 230.435 137.855 230.484 138.068 230.492Z" fill="#A0A0A0"/>
<path d="M132.565 222.256C133.088 222.101 133.123 221.759 132.968 219.004C132.788 216.329 132.583 215.782 131.93 216.215C131.676 216.383 131.618 217.082 131.765 219.117C131.92 221.873 132.06 222.399 132.565 222.256Z" fill="#A0A0A0"/>
<path d="M152.512 243.175C153.295 243.254 153.299 242.59 152.569 231.6C152.153 225.456 151.312 212.641 150.691 203.114C150.069 193.588 149.488 185.698 149.41 185.579C149.331 185.46 149.171 185.375 149.05 185.39C148.93 185.406 148.741 184.529 148.638 183.467C146.903 165.678 146.145 158.545 145.936 158.427C145.803 158.344 145.481 158.408 145.245 158.564C144.882 158.804 144.824 158.992 144.93 159.349C145.066 159.791 145.399 163.09 146.915 178.145C147.256 181.694 147.27 182.346 146.966 181.886C146.878 181.753 146.708 181.694 146.618 181.754C146.509 181.826 146.397 181.815 146.348 181.741C146.299 181.667 146.117 179.697 145.969 177.385C145.726 173.473 145.668 173.149 145.23 173.118C144.839 173.079 144.757 173.112 144.649 173.461C144.55 173.824 145.38 188.118 145.591 189.343C145.664 189.807 145.75 189.899 146.103 189.879C146.482 189.862 146.594 190.898 147.215 200.424C147.626 206.678 148.005 211.034 148.176 211.134C148.319 211.232 148.585 211.162 148.765 211C149.08 210.727 148.681 202.994 147.508 186.646C147.407 185.113 147.352 183.849 147.39 183.866C147.446 183.872 147.73 186.35 148.015 189.381C148.301 192.412 148.627 195.033 148.745 195.211C149 195.596 148.986 195.457 150.595 220.068C151.276 230.473 151.891 239.833 151.966 240.892C152.091 242.814 152.159 243.153 152.512 243.175Z" fill="#A0A0A0"/>
<path d="M134.731 212.804C134.905 212.752 135.12 212.525 135.178 212.337C135.326 211.812 134.841 203.752 134.645 203.455C134.449 203.159 133.832 203.29 133.715 203.666C133.59 204.068 134.068 212.432 134.235 212.684C134.313 212.803 134.528 212.852 134.731 212.804Z" fill="#A0A0A0"/>
<path d="M132.635 201.246C132.816 201.126 132.993 200.881 133.015 200.717C133.047 200.568 132.875 197.59 132.648 194.135C132.251 188.256 132.19 187.849 131.761 187.792C131.352 187.764 131.279 187.812 131.161 188.146C130.988 188.751 131.819 200.762 132.065 201.133C132.222 201.37 132.399 201.402 132.635 201.246Z" fill="#A0A0A0"/>
<path d="M142.899 211.001C143.074 210.95 143.301 210.821 143.39 210.719C143.613 210.465 140.5 163.411 140.249 163.15C140.135 163.056 139.857 163.069 139.638 163.172C139.31 163.346 139.257 163.7 139.373 165.372C139.45 166.473 140.149 177.143 140.932 189.079C141.714 201.016 142.411 210.855 142.47 210.944C142.529 211.033 142.725 211.053 142.899 211.001Z" fill="#A0A0A0"/>
<path d="M138.959 199.534C139.144 199.497 139.379 199.341 139.459 199.224C139.735 198.893 139.143 191.223 138.839 191.04C138.697 190.942 138.43 191.012 138.25 191.174C137.962 191.408 137.958 192.348 138.152 195.398C138.304 197.558 138.471 199.387 138.53 199.476C138.589 199.565 138.785 199.585 138.959 199.534Z" fill="#A0A0A0"/>
<path d="M131.493 186.519C131.623 186.518 131.822 186.386 131.938 186.246C132.222 185.887 131.453 174.837 131.13 174.625C130.979 174.554 130.71 174.582 130.529 174.702C130.257 174.882 130.255 176.1 130.56 180.461C130.901 185.823 131.03 186.569 131.493 186.519Z" fill="#A0A0A0"/>
<path d="M137.423 189.333C137.767 189.34 137.875 189.268 137.965 188.931C138.132 188.395 137.517 179.034 137.291 178.693C137.094 178.397 136.468 178.513 136.351 178.889C136.276 179.13 136.824 188.428 136.947 189.008C136.981 189.178 137.209 189.325 137.423 189.333Z" fill="#A0A0A0"/>
<path d="M133.186 175.012C133.36 174.961 133.575 174.733 133.633 174.546C133.741 174.197 132.713 157.24 132.522 156.045C132.416 155.411 131.823 155.185 131.525 155.681C131.331 155.98 132.464 174.552 132.699 174.908C132.778 175.026 132.983 175.061 133.186 175.012Z" fill="#A0A0A0"/>
<path d="M136.691 174.676C137.145 174.376 137.157 174.197 136.969 171.549C136.791 169.193 136.587 168.688 135.957 169.233C135.687 169.454 135.645 170.101 135.755 171.883C135.931 174.433 136.129 175.048 136.691 174.676Z" fill="#A0A0A0"/>
<path d="M130.438 157.979C130.613 157.927 130.784 157.792 130.863 157.676C131.09 157.27 130.314 147.312 130.058 147.162C129.925 147.079 129.649 147.134 129.469 147.296C129.199 147.518 129.183 148.637 129.443 152.496C129.614 155.197 129.848 157.559 129.937 157.734C130.055 157.912 130.282 158.018 130.438 157.979Z" fill="#A0A0A0"/>
<path d="M136.239 162.371C136.425 162.376 136.69 162.264 136.788 162.136C137.054 161.789 135.549 139.305 135.232 139.024C134.742 138.559 134.324 139.071 134.362 140.112C134.396 141.582 135.77 162.213 135.829 162.302C135.848 162.331 136.035 162.378 136.239 162.371Z" fill="#A0A0A0"/>
<path d="M131.889 151.346C132.335 151.626 132.796 151.023 132.766 150.19C132.723 148.234 130.429 114.394 130.336 114.136C130.203 113.776 129.416 113.849 129.308 114.198C129.252 114.427 131.43 148.92 131.621 150.627C131.652 150.948 131.793 151.281 131.889 151.346Z" fill="#A0A0A0"/>
<path d="M138.738 157.518C138.998 157.517 139.133 157.406 139.244 157.141C139.45 156.663 137.675 130.029 137.41 129.628C137.184 129.287 136.573 129.585 136.479 130.074C136.402 130.509 138.178 157.185 138.296 157.363C138.345 157.437 138.552 157.513 138.738 157.518Z" fill="#A0A0A0"/>
<path d="M129.034 139.587C129.208 139.535 129.423 139.308 129.481 139.12C129.581 138.798 129.048 129.405 128.854 128.126C128.78 127.62 128.356 127.453 127.97 127.815C127.772 127.989 127.787 129.706 128.041 133.675C128.245 136.74 128.459 139.349 128.538 139.467C128.616 139.586 128.831 139.635 129.034 139.587Z" fill="#A0A0A0"/>
<path d="M138.587 121.321C138.761 121.269 138.976 121.042 139.034 120.854C139.234 120.21 138.444 109.878 138.184 109.602C138.03 109.448 137.788 109.438 137.589 109.57C137.298 109.762 137.293 110.896 137.573 115.338C137.757 118.373 137.981 120.997 138.079 121.145C138.159 121.305 138.384 121.37 138.587 121.321Z" fill="#A0A0A0"/>
</g>
<defs>
<clipPath id="clip0_152_957">
<rect width="227.631" height="153.513" fill="white" transform="translate(125.638 274.548) rotate(-123.5)"/>
</clipPath>
</defs>
</svg>
