<svg width="19" height="19" viewBox="0 0 19 19" fill="none" xmlns="http://www.w3.org/2000/svg">
<path d="M12.4687 7.12554C12.4687 7.82729 12.3305 8.52217 12.062 9.1705C11.7934 9.81884 11.3998 10.4079 10.9036 10.9041C10.4074 11.4004 9.8183 11.794 9.16996 12.0625C8.52163 12.3311 7.82675 12.4693 7.125 12.4693C6.42325 12.4693 5.72837 12.3311 5.08003 12.0625C4.4317 11.794 3.84261 11.4004 3.3464 10.9041C2.85018 10.4079 2.45657 9.81884 2.18802 9.1705C1.91947 8.52217 1.78125 7.82729 1.78125 7.12554C1.78125 5.70829 2.34425 4.34908 3.3464 3.34694C4.34855 2.34479 5.70775 1.78179 7.125 1.78179C8.54225 1.78179 9.90145 2.34479 10.9036 3.34694C11.9057 4.34908 12.4687 5.70829 12.4687 7.12554ZM9.95811e-09 7.12554C-6.86249e-05 8.42393 0.354656 9.69766 1.02585 10.8091C1.69704 11.9206 2.65918 12.8275 3.80833 13.4319C4.95747 14.0363 6.24992 14.3152 7.54605 14.2385C8.84217 14.1617 10.0927 13.7323 11.1625 12.9965L16.625 18.4796L17.8853 17.2193L12.4862 11.8201C13.2447 10.9536 13.7819 9.91607 14.0517 8.79647C14.3215 7.67688 14.3159 6.50857 14.0354 5.39161C13.7548 4.27466 13.2077 3.24235 12.4409 2.38311C11.6741 1.52387 10.7105 0.863309 9.6325 0.458011C8.55453 0.0527123 7.39438 -0.0852452 6.25142 0.0559552C5.10846 0.197156 4.01677 0.613305 3.06984 1.26876C2.12292 1.92421 1.34898 2.79943 0.814339 3.81945C0.279693 4.83947 0.000268573 5.97389 9.95811e-09 7.12554Z" fill="#BCBCBC"/>
</svg>
