<svg width="24" height="24" viewBox="0 0 24 24" fill="none" xmlns="http://www.w3.org/2000/svg">
<path d="M17.7708 7.54056C17.0269 7.54056 16.334 7.32427 15.7498 6.95241L9.85307 11.0693C9.94773 11.3997 9.99949 11.7483 9.99949 12.1091C9.99949 12.47 9.94773 12.8186 9.85307 13.149L15.5906 17.1547C16.2062 16.7174 16.9581 16.4594 17.7708 16.4594C19.853 16.4594 21.541 18.1475 21.541 20.2297C21.541 22.3119 19.8531 24 17.7708 24C15.6886 24 14.0006 22.312 14.0006 20.2297C14.0006 19.9548 14.0308 19.6869 14.0867 19.4287L8.20351 15.3212C7.62923 15.6749 6.95323 15.8794 6.22924 15.8794C4.14701 15.8794 2.45898 14.1913 2.45898 12.1091C2.45898 10.0269 4.14696 8.33886 6.22924 8.33886C6.95318 8.33886 7.62923 8.54331 8.20351 8.89701L14.1321 4.75783C14.0469 4.44296 14.0006 4.11207 14.0006 3.77025C14.0006 1.68802 15.6886 0 17.7708 0C19.8531 0 21.5411 1.68802 21.5411 3.77025C21.5411 5.85248 19.8531 7.54056 17.7708 7.54056Z" fill="#9C9C9C"/>
</svg>
