<svg width="1202" height="249" viewBox="0 0 1202 249" fill="none" xmlns="http://www.w3.org/2000/svg">
<g clip-path="url(#clip0_377_2)" filter="url(#filter0_dd_377_2)">
<path d="M1018.08 61.1498C1015.13 63.8483 1014.14 69.154 1015.74 73.7985C1016.25 75.2877 1017.9 78.1517 1018.92 79.2655C1019.31 79.7146 1020.35 80.6152 1021.21 81.2915C1022.59 82.3439 1023.21 82.6561 1026.11 83.7048C1030.35 85.2489 1034.24 86.066 1038.22 86.2718C1041.18 86.4027 1045.36 85.8776 1047.69 85.0655C1048.29 84.858 1048.45 84.943 1051.41 86.8921C1062.23 94.0013 1074.26 104.137 1085.85 115.929C1087.69 117.793 1087.72 117.83 1087.34 117.929C1082.73 119.09 1081.98 119.361 1081.98 119.769C1081.97 120.149 1081.9 120.195 1080.92 120.296C1079.75 120.415 1077.55 121.581 1077.41 122.145C1077.36 122.405 1069.89 122.536 1045.66 122.763C1016.72 123.019 1013.97 123.094 1013.91 123.483C1013.82 124.095 1014.25 124.266 1015.61 124.242C1016.21 124.239 1029.1 124.105 1044.3 123.984C1059.49 123.844 1073.17 123.718 1074.71 123.705C1077.06 123.672 1077.53 123.742 1077.74 124.078C1077.94 124.46 1078.08 124.452 1078.96 124.081C1081.69 122.901 1082.95 123.136 1085.73 125.353C1086.96 126.339 1089 128.947 1089.29 129.961L1089.49 130.603L1080.99 130.77C1076.32 130.854 1072.4 131.02 1072.29 131.112C1072.19 131.222 1072.18 131.482 1072.28 131.724C1072.42 132.022 1072.66 132.127 1073.24 132.114C1077.22 132.088 1089.72 131.783 1089.84 131.71C1090.07 131.573 1090.27 132.215 1090.56 133.943C1090.8 135.42 1090.76 136.301 1090.37 137.624L1090.14 138.447L1060.19 138.703C1043.72 138.848 1030.09 139.068 1029.91 139.177C1029.52 139.406 1029.78 140.039 1030.29 140.137C1030.44 140.175 1036.75 140.153 1044.29 140.078C1051.83 140.003 1061.47 139.912 1065.72 139.879C1069.97 139.846 1074.51 139.789 1075.81 139.773L1078.17 139.731L1077.81 140.349C1071.51 150.705 1064.26 158.436 1053.26 166.511C1050.28 168.671 1045.53 171.89 1043.38 173.177L1041.46 174.327L1039.73 173.967C1036.76 173.363 1033.48 173.219 1030.23 173.568C1027.95 173.815 1022.24 175.178 1021.43 175.662C1017.87 177.789 1016.62 182.897 1018.36 188.016C1018.91 189.608 1020.45 192.183 1021.59 193.428C1023.06 195.01 1024.71 196.148 1026.63 196.9C1028.23 197.537 1028.7 197.616 1031.32 197.595C1033.1 197.594 1034.85 197.435 1035.83 197.203C1043.12 195.373 1052.37 188.422 1055.5 182.395C1056.09 181.26 1056.1 181.251 1060.08 178.516C1069.75 171.848 1077.09 166.595 1084.03 161.384C1086.37 159.626 1088.34 158.198 1088.39 158.217C1088.44 158.236 1088.59 158.859 1088.71 159.621C1089.07 161.739 1089.74 163.49 1091.02 165.589C1092.36 167.829 1093.41 168.999 1095.5 170.587C1097.25 171.921 1099.94 173.023 1101.57 173.086C1102.11 173.091 1102.68 173.235 1102.82 173.404C1103.36 173.966 1108.68 173.266 1112.56 172.117C1123.31 168.901 1132.05 160.507 1133.82 151.619L1134.1 150.314L1137.66 150.441C1141.22 150.569 1145.34 150.535 1147.83 150.364C1148.54 150.316 1149.5 150.278 1149.94 150.264C1151.86 150.209 1159.14 149.12 1162.01 148.471C1168.68 146.94 1172.88 145.34 1178.49 142.212C1182.91 139.723 1184.63 138.488 1187.83 135.56C1188.88 134.577 1189.8 133.751 1189.88 133.706C1189.97 133.651 1190.21 133.913 1190.43 134.286C1190.72 134.771 1191.03 135.016 1191.6 135.235C1192.81 135.673 1193.52 135.021 1193.91 133.17L1194.12 132.105L1195.76 131.806C1197.66 131.435 1198.09 131.226 1197.98 130.733C1197.92 130.463 1197.3 130.179 1195.76 129.681L1193.63 129.03L1192.99 127.864C1192.44 126.876 1192.26 126.679 1191.61 126.385C1190.97 126.082 1190.73 126.098 1190.2 126.418C1189.85 126.628 1189.5 127.014 1189.42 127.263C1189.23 127.809 1189.02 127.779 1188.67 127.182C1188.21 126.417 1185.1 123.539 1183.18 122.101C1179.52 119.375 1175.71 117.325 1170.68 115.439C1157.61 110.516 1140.33 109.215 1120.18 111.588C1118.17 111.829 1116.17 112.087 1115.76 112.158C1115.34 112.228 1114.85 112.242 1114.67 112.203C1114.48 112.164 1114.22 112.189 1114.09 112.271C1113.95 112.353 1113.04 112.539 1112.09 112.706L1110.33 112.995L1107.28 110.006C1090.93 93.9657 1074.01 81.5374 1060.78 75.8703C1058.62 74.9587 1058.27 74.7328 1056.67 73.2607C1048.97 66.2376 1040.86 61.5853 1032.99 59.6811C1030.25 59.0143 1028.23 58.7534 1025.57 58.7183C1021.9 58.6825 1020.15 59.2498 1018.08 61.1498ZM1023.67 60.0355C1026.86 59.7234 1030.06 61.0533 1032.8 63.798C1034 65.0063 1035.62 67.7865 1036.14 69.6005C1037.14 73.0332 1036.6 77.0261 1034.81 79.3926C1033.84 80.654 1031.06 82.3152 1029.5 82.569C1027.23 82.9087 1024.1 82.0989 1022 80.5942C1018.72 78.2432 1016.43 74.3433 1016.08 70.4995C1015.84 67.8812 1016.55 65.0496 1017.9 63.2816C1018.93 61.9559 1019.11 61.7999 1020.69 60.9527C1021.81 60.3328 1022.44 60.1627 1023.67 60.0355ZM1033.57 61.004C1039.62 62.5287 1046.3 66.0818 1052.56 71.1335C1054.81 72.955 1056.96 74.8869 1056.92 75.0628C1056.88 75.3129 1052.61 76.7554 1050.41 77.2813C1047.78 77.8957 1045.1 78.2313 1042.56 78.2252C1040.49 78.2235 1037.33 77.8588 1037.21 77.6257C1037.16 77.5324 1037.28 76.9028 1037.48 76.1997C1037.89 74.6638 1037.81 71.7689 1037.31 69.8624C1036.84 68.0952 1035.15 64.9248 1033.96 63.5588C1033.03 62.4923 1031.66 61.2823 1030.82 60.8009C1029.59 60.0932 1030.11 60.1354 1033.57 61.004ZM1038.8 79.6912C1040.9 80.6671 1043.22 81.8865 1045.5 83.2074L1046.87 84.0093L1046.2 84.2346C1045.1 84.5857 1041.7 85.0534 1039.92 85.101C1037.72 85.1259 1034.69 84.8088 1032.11 84.2735L1030.02 83.8264L1030.8 83.5649C1031.23 83.4301 1032.35 82.8658 1033.25 82.2995C1034.64 81.4689 1035.06 81.0926 1035.71 80.1713C1036.15 79.5541 1036.56 79.0015 1036.66 78.919C1036.77 78.8551 1037.72 79.1983 1038.8 79.6912ZM1047.93 78.9918C1050.7 78.555 1054.96 77.3721 1057.05 76.4555L1058.16 75.9654L1060.07 76.7726C1071.51 81.5872 1086.65 92.1707 1100.8 105.268C1103.9 108.127 1108.92 113.028 1108.9 113.167C1108.89 113.222 1108.09 113.4 1107.12 113.548C1104.8 113.924 1097.27 115.512 1092.58 116.616L1088.85 117.507L1086.58 115.166C1080.22 108.629 1071.6 100.79 1064.74 95.2873C1061.24 92.4702 1055.17 88.0419 1051.85 85.8946C1050.29 84.8775 1048.93 83.9923 1048.86 83.9359C1048.55 83.6639 1042.98 80.5112 1042.04 80.0568C1041.5 79.801 1041.04 79.5647 1041.01 79.5087C1040.99 79.4714 1041.91 79.4248 1043.07 79.4453C1044.22 79.438 1046.41 79.2459 1047.93 78.9918ZM1081.78 121.455C1083.94 121.383 1086.54 122.587 1088.86 124.697C1090.55 126.244 1092.47 129.147 1093.35 131.484C1094.26 133.905 1094.55 136.394 1094.19 138.431C1093.79 140.598 1093.06 141.769 1091.5 142.7C1090.53 143.284 1090.21 143.374 1088.85 143.351C1087.75 143.35 1086.9 143.175 1085.91 142.775C1084.66 142.234 1082.81 140.983 1081.89 140.065C1081.57 139.746 1081.59 139.709 1082.02 139.704C1082.28 139.679 1082.91 139.935 1083.41 140.246C1084.59 140.981 1085.97 141.375 1087.24 141.397C1088.69 141.392 1090.35 140.398 1091.03 139.105C1092.03 137.241 1092 133.994 1090.93 131.062C1090.34 129.488 1088.79 126.969 1087.66 125.742C1085.11 123.009 1082.44 121.795 1079.86 122.197L1078.76 122.353L1079.74 121.918C1080.28 121.672 1081.19 121.477 1081.78 121.455ZM1087.46 119.201C1094.64 117.313 1101.6 115.786 1108.87 114.502C1114.89 113.438 1114.7 113.446 1116.33 114.222C1118.21 115.122 1120.22 116.533 1121.8 118.042C1122.97 119.167 1123.27 119.55 1124.78 122.088C1125.98 124.057 1126.66 125.399 1127.15 126.628C1128.16 129.217 1129.3 132.967 1129.17 133.169C1129.1 133.289 1127.16 133.41 1124.87 133.461C1122.58 133.541 1115.47 133.713 1109.07 133.892C1102.69 134.061 1097.31 134.157 1097.15 134.128C1096.79 134.041 1096.09 134.609 1096.18 134.935C1096.22 135.065 1096.47 135.244 1096.75 135.358C1097.03 135.444 1097.79 135.925 1098.47 136.432C1101.35 138.585 1103.33 140.747 1103.86 142.329C1104.18 143.278 1104.07 144.483 1103.64 144.739C1103.12 145.049 1099.16 144.25 1095.29 143.043L1093.77 142.583L1094.35 141.578C1097.22 136.392 1094.18 127.216 1088.05 122.62C1086.83 121.727 1084.87 120.697 1083.99 120.512C1083.66 120.434 1083.45 120.33 1083.54 120.276C1083.63 120.221 1085.39 119.728 1087.46 119.201ZM1120.39 112.806C1122.23 112.592 1123.85 112.459 1123.96 112.497C1125.43 113.087 1130.95 116.628 1130.9 116.962C1130.85 117.166 1123.45 117.464 1122.86 117.282C1122.64 117.215 1121.89 116.698 1121.24 116.126C1120.57 115.563 1119.34 114.679 1118.49 114.169C1117.62 113.651 1116.95 113.217 1116.97 113.208C1117 113.19 1118.54 113.001 1120.39 112.806ZM1079.54 139.773C1079.98 139.786 1080.33 139.984 1080.81 140.481C1082.01 141.763 1084.12 143.212 1085.77 143.896C1087.94 144.78 1090.06 144.829 1091.64 144.009L1092.74 143.454L1095.33 144.24C1098.34 145.151 1100.48 145.691 1101.38 145.765C1101.73 145.805 1102.04 145.873 1102.09 145.948C1102.3 146.302 1098.86 147.169 1095.78 147.538C1094.58 147.674 1094.07 147.855 1092.88 148.567C1090.55 149.936 1089.29 151.853 1088.72 154.927L1088.43 156.547L1083.84 159.953C1077.71 164.532 1072.5 168.303 1066.34 172.621C1057.28 178.952 1056.38 179.537 1056.15 179.451C1055.8 179.355 1055.26 179.703 1055.21 180.064C1055.17 180.286 1054.57 180.215 1052.97 179.782C1049.18 178.753 1043.55 178.243 1039.04 178.561L1037.25 178.664L1040.84 176.371C1057.14 165.862 1064.11 160.197 1071.22 151.714C1074.97 147.27 1079.18 140.975 1078.91 140.221C1078.76 139.756 1078.78 139.747 1079.54 139.773ZM1132.69 111.785C1134.58 111.692 1135.16 111.781 1136.78 112.353C1137.83 112.716 1139.27 113.352 1139.97 113.767C1141.39 114.587 1143.67 116.242 1143.63 116.418C1143.62 116.474 1142.79 116.54 1141.79 116.577C1140.79 116.595 1138.36 116.682 1136.38 116.802L1132.8 116.99L1130.66 115.383C1129.48 114.49 1127.93 113.417 1127.18 113.002L1125.86 112.247L1128.19 112.047C1129.46 111.967 1131.5 111.838 1132.69 111.785ZM1024.05 176.124C1026.46 175.693 1029.1 176.498 1031.47 178.376C1032.41 179.127 1032.53 179.286 1032.59 179.806C1032.65 180.354 1032.71 180.42 1033.19 180.489C1033.64 180.549 1033.78 180.718 1034.54 181.986C1038.75 189.022 1035.94 196.731 1029.28 196.406C1027.98 196.347 1025.56 195.415 1024.32 194.484C1021.08 192.087 1018.86 188.067 1018.66 184.262C1018.43 179.993 1020.59 176.748 1024.05 176.124ZM1086.94 139.678C1088.53 139.74 1088.65 139.769 1088.05 139.976C1087.29 140.256 1086.63 140.268 1085.57 139.989C1084.49 139.7 1084.91 139.602 1086.94 139.678ZM1033.79 174.605C1035.91 174.579 1039.17 174.907 1039.8 175.192C1040.06 175.315 1039.65 175.636 1037.13 177.216C1035.49 178.248 1034.06 179.106 1033.93 179.133C1033.82 179.15 1033.51 178.925 1033.28 178.635C1032.54 177.737 1030.7 176.402 1029.26 175.72L1027.92 175.076L1029.8 174.835C1030.84 174.724 1032.62 174.593 1033.79 174.605ZM1127.91 118.445C1130.04 118.364 1131.83 118.251 1131.91 118.206C1132.22 118.023 1133.07 118.755 1134.5 120.457C1137.17 123.572 1139.15 127.71 1139.8 131.501L1140.06 133.044L1135.88 133.161C1133.57 133.203 1131.41 133.275 1131.05 133.29L1130.43 133.33L1129.83 131.33C1128.65 127.2 1127.63 124.796 1125.72 121.577C1124.78 119.963 1124 118.629 1124.02 118.62C1124.03 118.611 1125.78 118.526 1127.91 118.445ZM1146.3 111.852C1147.09 111.916 1147.58 112.152 1148.87 113.056C1150.29 114.053 1153.73 117.064 1153.58 117.155C1153.55 117.174 1152.29 117.087 1150.81 116.961C1149.33 116.808 1147.52 116.697 1146.79 116.653C1145.59 116.614 1145.4 116.547 1144.57 115.806C1142.83 114.212 1139.91 112.282 1138.9 112.021C1138.69 111.973 1138.46 111.832 1138.4 111.738C1138.3 111.57 1143.98 111.644 1146.3 111.852ZM1112.73 134.994C1120.07 134.788 1126.72 134.611 1127.5 134.6L1128.9 134.549L1130.33 137.142C1131.12 138.569 1131.94 140.284 1132.17 140.982C1133.16 143.987 1133.43 147.905 1132.83 150.821C1132.53 152.293 1131.67 154.91 1131.33 155.444C1131.19 155.629 1130.69 155.345 1129.01 154.095C1124.87 150.994 1119.09 147.941 1115.56 146.988C1112.34 146.122 1110.9 146.025 1105.83 146.216C1104.39 146.267 1103.88 146.114 1104.43 145.785C1104.89 145.511 1105.28 144.04 1105.14 143.083C1104.88 141.263 1103.08 138.843 1100.29 136.533C1099.54 135.895 1099.01 135.371 1099.13 135.353C1099.27 135.345 1105.39 135.182 1112.73 134.994ZM1136.91 117.976C1138.41 117.889 1140.86 117.792 1142.37 117.779L1145.08 117.731L1145.85 118.583C1146.33 119.107 1147.29 120.535 1148.41 122.402C1149.92 124.94 1150.28 125.667 1150.79 127.184C1151.37 128.942 1151.89 131.165 1151.95 132.241L1151.98 132.78L1150.53 132.812C1149.71 132.822 1147.32 132.883 1145.18 132.945C1143.05 132.98 1141.27 133.028 1141.25 133.018C1141.23 133.027 1141.03 132.209 1140.83 131.214C1140.04 127.255 1138.33 123.565 1135.95 120.601C1135.24 119.713 1134.49 118.815 1134.3 118.6C1134.11 118.412 1134.01 118.217 1134.07 118.18C1134.12 118.153 1135.4 118.045 1136.91 117.976ZM1038.03 179.85C1041 179.591 1045.48 179.672 1048.35 180.062C1050.76 180.391 1054.37 181.197 1054.52 181.439C1054.73 181.794 1052.71 184.622 1050.9 186.515C1046.99 190.605 1040.51 194.633 1035.71 195.977C1034.64 196.264 1034.52 196.086 1035.33 195.371C1037.05 193.838 1037.95 190.229 1037.45 187.061C1037.15 185.036 1036.49 183.202 1035.48 181.476L1034.77 180.3L1035.28 180.176C1035.54 180.095 1036.79 179.958 1038.03 179.85ZM1151.91 112.325C1156.54 112.852 1157.04 113.005 1159.81 114.823C1161.05 115.651 1163.97 118.314 1164.15 118.817C1164.2 118.984 1163.1 118.862 1161.15 118.481C1159.45 118.131 1157.43 117.768 1156.67 117.686C1155.77 117.566 1155.2 117.375 1154.95 117.094C1154.09 116.112 1151.93 114.087 1150.7 113.101C1149.98 112.519 1149.5 112.069 1149.65 112.08C1149.8 112.091 1150.82 112.193 1151.91 112.325ZM1096.39 148.722C1098.29 148.545 1099.07 148.664 1100.95 149.415C1108.68 152.496 1112.65 163.546 1108.09 169.216C1107.4 170.081 1106.99 170.402 1105.7 171.076C1104.24 171.822 1103.99 171.894 1102.36 171.878C1099.42 171.868 1096.5 170.494 1093.95 167.891C1092.8 166.729 1091.06 163.892 1090.47 162.244C1088.93 157.972 1089.6 153.136 1092.07 150.646C1093.05 149.654 1094.85 148.855 1096.39 148.722ZM1149.02 117.983C1150.18 118.05 1151.98 118.216 1153.01 118.356L1154.9 118.597L1156.07 120.148C1157.57 122.092 1159.54 125.701 1160.35 127.954C1160.87 129.415 1161.7 132.568 1161.58 132.641C1161.41 132.742 1153.34 132.728 1153.22 132.625C1153.14 132.54 1152.99 131.871 1152.87 131.109C1152.6 129.372 1151.72 126.525 1150.88 124.596C1150.21 123.096 1147.72 119.065 1147.02 118.344C1146.82 118.156 1146.71 117.97 1146.77 117.933C1146.85 117.887 1147.86 117.916 1149.02 117.983ZM1103.78 147.217C1104.2 147.341 1106.02 147.424 1107.82 147.386C1111.49 147.264 1112.78 147.407 1115.42 148.184C1119.43 149.336 1124.27 151.888 1128.47 155.027L1130.69 156.709L1130.01 157.881C1126.83 163.304 1119.72 168.569 1112.51 170.827C1110.85 171.339 1107.02 172.211 1106.77 172.107C1106.72 172.087 1106.92 171.913 1107.26 171.712C1110.02 170.06 1111.62 165.456 1110.95 161.145C1110.07 155.617 1106.07 150.226 1101.48 148.363L1100.66 148.04L1101.83 147.495C1102.83 147.05 1103.13 146.997 1103.78 147.217ZM1164.78 114.713C1167.51 115.464 1169.74 116.812 1171.78 118.938C1172.83 120.033 1173.94 121.445 1173.81 121.527C1173.75 121.563 1172.83 121.35 1171.77 121.025C1170.71 120.717 1169.01 120.265 1167.99 120.014L1166.16 119.56L1165.21 118.41C1164.07 117.035 1162.87 115.854 1161.35 114.661C1160.75 114.183 1160.19 113.732 1160.09 113.666C1159.88 113.488 1162.28 114.03 1164.78 114.713ZM1137.97 134.294C1139.1 134.25 1140.08 134.296 1140.14 134.39C1140.34 134.725 1140.28 137.777 1140.02 139.5C1139.36 144.252 1137.21 148.507 1135.26 148.989C1134.9 149.079 1134.52 149.075 1134.43 149C1134.34 148.906 1134.27 148.21 1134.27 147.449C1134.31 143.98 1133.33 140.39 1131.34 136.762L1130.13 134.524L1133.01 134.45C1134.59 134.391 1136.81 134.329 1137.97 134.294ZM1162.89 120.001L1165.66 120.594L1166.64 122.218C1167.7 123.99 1168.79 126.478 1169.26 128.171C1169.57 129.306 1170.04 131.787 1170.05 132.334C1170.05 132.566 1169.17 132.66 1166.37 132.66C1163.35 132.668 1162.69 132.606 1162.64 132.308C1162.33 130.821 1161.59 128.272 1161.04 126.829C1160.34 125.023 1157.54 120.107 1156.71 119.236C1156.27 118.786 1156.32 118.787 1158.19 119.111C1159.24 119.27 1161.35 119.68 1162.89 120.001ZM1145.99 134.131C1148.41 134.081 1150.78 134.03 1151.27 134.016L1152.14 133.978L1152.16 134.776C1152.22 137.93 1151.55 140.892 1150.21 143.365C1148.97 145.626 1148.16 146.49 1145.88 148.035L1143.93 149.352L1140.67 149.302C1138.23 149.287 1137.45 149.196 1137.59 148.984C1139.5 146.276 1140.57 143.559 1141.06 140.094C1141.26 138.788 1141.38 136.99 1141.35 136.071C1141.32 135.152 1141.37 134.364 1141.43 134.3C1141.52 134.245 1143.57 134.163 1145.99 134.131ZM1174.13 118.042C1179.98 120.724 1184.94 124.316 1188.12 128.141C1189.33 129.6 1189.65 129.789 1189.84 129.216C1190.05 128.587 1190.44 128.025 1190.67 128.064C1191 128.095 1191.67 129.391 1191.84 130.376C1192.06 131.51 1191.85 133.085 1191.47 133.211C1191.25 133.265 1191.09 133.105 1190.81 132.565C1190.55 132.061 1190.34 131.855 1190.15 131.872C1189.98 131.898 1188.85 132.852 1187.62 133.99C1184.05 137.369 1180.52 139.932 1177.04 141.688L1175.05 142.698L1176.01 141.288C1179.58 136.064 1179.38 128.631 1175.51 122.156C1174.53 120.513 1172.99 118.569 1171.78 117.444C1171.1 116.834 1171.08 116.797 1171.44 116.884C1171.66 116.933 1172.86 117.455 1174.13 118.042ZM1172.53 122.414L1174.85 123.058L1175.57 124.475C1176.4 126.107 1177.16 128.665 1177.37 130.541C1177.65 132.909 1177.87 132.754 1174.32 132.719C1172.62 132.703 1171.2 132.614 1171.18 132.522C1170.69 128.862 1169.72 125.717 1168.17 122.817L1167.18 120.952L1168.7 121.366C1169.54 121.597 1171.25 122.068 1172.53 122.414ZM1157.32 133.917C1159.49 133.892 1161.38 133.901 1161.51 133.949C1161.9 134.092 1161.89 136.559 1161.49 138.624C1161.1 140.753 1160.05 142.979 1158.71 144.543C1157.97 145.389 1157.28 145.929 1155.7 146.897C1153.18 148.431 1151.56 148.944 1148.69 149.111L1146.65 149.221L1147.47 148.552C1151.29 145.509 1153.4 140.521 1153.26 134.879C1153.25 134.452 1153.28 134.054 1153.31 134.036C1153.36 134.008 1155.16 133.97 1157.32 133.917ZM1167.59 133.859L1170.12 133.893L1170.11 134.608C1170.13 135.962 1169.45 138.952 1168.79 140.411C1167.82 142.535 1166.35 144.228 1164.2 145.691C1162.22 147.026 1160.85 147.541 1157.94 148.014L1156.26 148.285L1157.31 147.479C1159.12 146.096 1160.13 144.909 1161.18 142.99C1162.31 140.867 1162.91 138.202 1162.89 135.502L1162.88 133.916L1163.97 133.871C1164.56 133.848 1166.19 133.836 1167.59 133.859ZM1174.42 133.926L1177.43 133.955L1177.13 135.576C1176.58 138.437 1175.17 140.881 1172.75 143.112C1171.53 144.222 1171.33 144.341 1169.58 144.983C1168.55 145.344 1167.32 145.777 1166.82 145.921L1165.94 146.172L1166.85 145.271C1169.31 142.809 1170.53 140.205 1170.99 136.462C1171.15 135.1 1171.31 133.942 1171.35 133.915C1171.4 133.887 1172.79 133.892 1174.42 133.926ZM1194.63 130.533C1194.98 130.704 1194.99 130.722 1194.68 130.756C1194.48 130.773 1194.25 130.836 1194.17 130.881C1194.1 130.927 1193.98 130.87 1193.93 130.777C1193.75 130.478 1194.19 130.316 1194.63 130.533Z" fill="#A0A0A0"/>
<path d="M947.534 124.719C947.578 124.896 947.685 125.11 947.783 125.204C947.88 125.298 954.274 125.249 961.977 125.101C1004.71 124.247 1001.09 124.36 1001.18 123.851C1001.23 123.443 1001.18 123.369 1000.86 123.254C1000.55 123.14 985.146 123.407 951.718 124.092C949.568 124.136 947.733 124.22 947.626 124.284C947.535 124.339 947.491 124.543 947.534 124.719Z" fill="#A0A0A0"/>
<path d="M942.797 127.679C942.451 128.519 943.254 128.546 958.467 128.24C966.867 128.08 973.847 127.833 974.004 127.714C974.165 127.567 974.186 127.326 974.052 127.102C973.874 126.804 971.316 126.788 958.871 127.01C950.652 127.162 943.684 127.325 943.415 127.36C943.134 127.376 942.848 127.521 942.797 127.679Z" fill="#A0A0A0"/>
<path d="M947.543 130.313C947.587 130.49 947.793 130.696 947.978 130.762C948.484 130.916 959 130.657 959.29 130.483C959.626 130.282 959.44 129.659 959.002 129.516C958.496 129.362 948.036 129.613 947.716 129.804C947.578 129.887 947.504 130.109 947.543 130.313Z" fill="#A0A0A0"/>
<path d="M945.527 133.976C945.751 134.349 946.243 134.41 949.416 134.311C951.399 134.265 953.155 134.153 953.307 134.061C953.475 133.961 953.478 133.757 953.31 133.477C953.076 133.085 952.61 133.034 949.452 133.124C947.485 133.16 945.729 133.273 945.561 133.373C945.362 133.492 945.349 133.678 945.527 133.976Z" fill="#A0A0A0"/>
<path d="M939.96 137.382C940.003 137.558 940.209 137.765 940.394 137.831C940.911 138.003 979.454 137.173 979.744 137C980.095 136.79 979.908 136.167 979.482 136.042C979.281 135.984 971.014 136.089 961.105 136.289C951.196 136.49 942.499 136.674 941.76 136.685C940.255 136.698 939.84 136.87 939.96 137.382Z" fill="#A0A0A0"/>
<path d="M940.337 142.933C940.323 143.118 940.423 143.388 940.547 143.491C940.682 143.613 947.284 143.566 955.226 143.403C968.722 143.135 969.662 143.08 969.739 142.654C969.785 142.246 969.741 142.171 969.424 142.057C969.106 141.943 940.623 142.407 940.41 142.535C940.379 142.553 940.339 142.729 940.337 142.933Z" fill="#A0A0A0"/>
<path d="M946.096 141.06C946.139 141.236 946.277 141.432 946.41 141.48C946.821 141.614 970.791 141.087 971.051 140.932C971.341 140.758 971.274 140.266 970.921 140.021C970.59 139.814 946.681 140.305 946.314 140.524C946.146 140.624 946.057 140.855 946.096 141.06Z" fill="#A0A0A0"/>
<path d="M967.942 131.263C967.912 131.838 968.245 131.943 970.061 131.896C970.956 131.868 983.082 131.634 996.957 131.342C1011.6 131.049 1022.27 130.745 1022.37 130.588C1022.45 130.459 1022.41 130.18 1022.26 129.993C1022.05 129.713 1019.45 129.697 1008.89 129.909C1001.67 130.043 989.571 130.287 981.993 130.436C974.4 130.593 968.156 130.755 968.08 130.801C968.018 130.837 967.959 131.05 967.942 131.263Z" fill="#A0A0A0"/>
<path d="M976.421 126.142C976.551 126.672 976.892 126.722 979.651 126.693C982.331 126.636 982.887 126.455 982.485 125.784C982.329 125.522 981.632 125.432 979.593 125.486C976.833 125.515 976.301 125.631 976.421 126.142Z" fill="#A0A0A0"/>
<path d="M954.612 145.113C954.497 145.891 955.16 145.925 966.172 145.699C972.329 145.564 985.169 145.309 994.714 145.124C1004.26 144.938 1012.17 144.719 1012.29 144.646C1012.41 144.573 1012.5 144.416 1012.49 144.295C1012.48 144.174 1013.37 144.025 1014.43 143.971C1032.28 143.05 1039.44 142.619 1039.57 142.416C1039.66 142.287 1039.61 141.962 1039.47 141.719C1039.24 141.346 1039.06 141.28 1038.7 141.369C1038.25 141.485 1034.94 141.666 1019.83 142.493C1016.27 142.671 1015.62 142.656 1016.09 142.373C1016.23 142.291 1016.29 142.124 1016.24 142.031C1016.17 141.919 1016.19 141.808 1016.26 141.762C1016.34 141.717 1018.32 141.625 1020.63 141.582C1024.55 141.518 1024.88 141.475 1024.93 141.04C1024.99 140.651 1024.96 140.567 1024.61 140.443C1024.25 140.328 1009.94 140.504 1008.7 140.659C1008.24 140.71 1008.14 140.793 1008.14 141.145C1008.14 141.525 1007.11 141.589 997.56 141.775C991.294 141.899 986.926 142.079 986.818 142.245C986.714 142.383 986.771 142.653 986.925 142.84C987.182 143.167 994.926 143.122 1011.31 142.697C1012.85 142.666 1014.11 142.669 1014.09 142.706C1014.08 142.761 1011.6 142.932 1008.56 143.079C1005.51 143.225 1002.88 143.431 1002.7 143.541C1002.3 143.778 1002.44 143.77 977.782 144.253C967.358 144.458 957.979 144.645 956.918 144.671C954.992 144.708 954.65 144.761 954.612 145.113Z" fill="#A0A0A0"/>
<path d="M985.764 128.738C985.808 128.914 986.025 129.139 986.21 129.206C986.727 129.378 994.801 129.262 995.106 129.079C995.412 128.897 995.309 128.274 994.939 128.141C994.542 127.998 986.166 128.092 985.906 128.247C985.784 128.32 985.725 128.533 985.764 128.738Z" fill="#A0A0A0"/>
<path d="M997.406 127.172C997.517 127.359 997.754 127.547 997.917 127.576C998.064 127.615 1001.05 127.579 1004.51 127.51C1010.4 127.382 1010.81 127.34 1010.89 126.914C1010.93 126.506 1010.89 126.432 1010.56 126.299C1009.96 126.098 997.926 126.379 997.545 126.608C997.3 126.754 997.261 126.93 997.406 127.172Z" fill="#A0A0A0"/>
<path d="M987.191 136.98C987.235 137.156 987.353 137.389 987.451 137.483C987.695 137.717 1034.84 136.758 1035.11 136.519C1035.21 136.409 1035.21 136.131 1035.12 135.907C1034.96 135.572 1034.61 135.503 1032.93 135.543C1031.83 135.569 1021.14 135.78 1009.18 136.016C997.22 136.252 987.36 136.499 987.268 136.554C987.176 136.608 987.148 136.803 987.191 136.98Z" fill="#A0A0A0"/>
<path d="M998.827 133.568C998.855 133.754 999 133.997 999.113 134.081C999.432 134.372 1007.12 134.131 1007.32 133.837C1007.42 133.698 1007.36 133.429 1007.21 133.242C1006.99 132.943 1006.05 132.897 1003 132.95C1000.83 133.003 998.995 133.087 998.904 133.142C998.812 133.197 998.784 133.392 998.827 133.568Z" fill="#A0A0A0"/>
<path d="M1012.17 126.704C1012.16 126.834 1012.29 127.039 1012.42 127.161C1012.77 127.461 1023.84 127.198 1024.07 126.885C1024.15 126.737 1024.13 126.468 1024.02 126.281C1023.85 126.001 1022.63 125.943 1018.26 126.049C1012.89 126.145 1012.14 126.24 1012.17 126.704Z" fill="#A0A0A0"/>
<path d="M1009.09 132.499C1009.06 132.842 1009.13 132.954 1009.46 133.06C1009.99 133.25 1019.37 133.063 1019.72 132.854C1020.03 132.671 1019.94 132.039 1019.57 131.906C1019.33 131.82 1010.02 131.943 1009.43 132.039C1009.26 132.065 1009.1 132.286 1009.09 132.499Z" fill="#A0A0A0"/>
<path d="M1023.59 128.921C1023.63 129.098 1023.85 129.322 1024.03 129.389C1024.38 129.513 1041.36 129.261 1042.56 129.125C1043.2 129.047 1043.45 128.465 1042.97 128.145C1042.68 127.938 1024.08 128.221 1023.71 128.44C1023.59 128.513 1023.55 128.716 1023.59 128.921Z" fill="#A0A0A0"/>
<path d="M1023.76 132.438C1024.04 132.905 1024.22 132.925 1026.87 132.858C1029.24 132.789 1029.75 132.608 1029.23 131.954C1029.02 131.673 1028.38 131.602 1026.6 131.631C1024.04 131.69 1023.42 131.86 1023.76 132.438Z" fill="#A0A0A0"/>
<path d="M1040.73 126.955C1040.77 127.131 1040.9 127.309 1041.01 127.393C1041.41 127.638 1051.39 127.318 1051.55 127.069C1051.64 126.94 1051.6 126.662 1051.44 126.475C1051.23 126.194 1050.12 126.128 1046.25 126.211C1043.54 126.258 1041.17 126.384 1040.99 126.466C1040.81 126.575 1040.7 126.797 1040.73 126.955Z" fill="#A0A0A0"/>
<path d="M1036.08 132.549C1036.06 132.735 1036.16 133.005 1036.28 133.108C1036.62 133.389 1059.15 132.913 1059.44 132.61C1059.93 132.142 1059.44 131.701 1058.4 131.691C1056.93 131.658 1036.25 132.087 1036.16 132.142C1036.13 132.16 1036.08 132.345 1036.08 132.549Z" fill="#A0A0A0"/>
<path d="M1047.29 128.707C1046.99 129.14 1047.57 129.628 1048.4 129.636C1050.36 129.683 1084.27 128.938 1084.53 128.857C1084.9 128.74 1084.86 127.951 1084.52 127.827C1084.29 127.76 1049.73 128.36 1048.02 128.473C1047.7 128.488 1047.36 128.615 1047.29 128.707Z" fill="#A0A0A0"/>
<path d="M1040.81 135.267C1040.8 135.527 1040.9 135.667 1041.16 135.79C1041.63 136.017 1068.32 135.461 1068.73 135.215C1069.08 135.005 1068.81 134.381 1068.33 134.264C1067.9 134.168 1041.17 134.723 1040.98 134.833C1040.91 134.878 1040.82 135.082 1040.81 135.267Z" fill="#A0A0A0"/>
<path d="M1059.16 126.392C1059.21 126.569 1059.43 126.794 1059.61 126.86C1059.93 126.975 1069.34 126.872 1070.62 126.736C1071.13 126.685 1071.32 126.27 1070.97 125.867C1070.81 125.662 1069.09 125.599 1065.12 125.671C1062.04 125.734 1059.43 125.829 1059.31 125.902C1059.18 125.975 1059.13 126.188 1059.16 126.392Z" fill="#A0A0A0"/>
<path d="M1076.97 136.77C1077.02 136.946 1077.24 137.171 1077.42 137.238C1078.05 137.467 1088.41 137.15 1088.7 136.903C1088.86 136.756 1088.88 136.515 1088.76 136.31C1088.58 136.011 1087.45 135.954 1083 136.031C1079.96 136.075 1077.33 136.18 1077.17 136.271C1077.01 136.343 1076.94 136.565 1076.97 136.77Z" fill="#A0A0A0"/>
</g>
<g filter="url(#filter1_dd_377_2)">
<path d="M-16 161.5C91.5 118.666 366.374 131.205 426 118.5C663 67.9999 815.167 134.167 979.5 136.5" stroke="#A0A0A0" stroke-dasharray="13 13"/>
</g>
<defs>
<filter id="filter0_dd_377_2" x="920.5" y="0" width="282.152" height="256.583" filterUnits="userSpaceOnUse" color-interpolation-filters="sRGB">
<feFlood flood-opacity="0" result="BackgroundImageFix"/>
<feColorMatrix in="SourceAlpha" type="matrix" values="0 0 0 0 0 0 0 0 0 0 0 0 0 0 0 0 0 0 127 0" result="hardAlpha"/>
<feOffset dy="4"/>
<feGaussianBlur stdDeviation="2"/>
<feComposite in2="hardAlpha" operator="out"/>
<feColorMatrix type="matrix" values="0 0 0 0 0 0 0 0 0 0 0 0 0 0 0 0 0 0 0.25 0"/>
<feBlend mode="normal" in2="BackgroundImageFix" result="effect1_dropShadow_377_2"/>
<feColorMatrix in="SourceAlpha" type="matrix" values="0 0 0 0 0 0 0 0 0 0 0 0 0 0 0 0 0 0 127 0" result="hardAlpha"/>
<feOffset dy="4"/>
<feGaussianBlur stdDeviation="2"/>
<feComposite in2="hardAlpha" operator="out"/>
<feColorMatrix type="matrix" values="0 0 0 0 0 0 0 0 0 0 0 0 0 0 0 0 0 0 0.25 0"/>
<feBlend mode="normal" in2="effect1_dropShadow_377_2" result="effect2_dropShadow_377_2"/>
<feBlend mode="normal" in="SourceGraphic" in2="effect2_dropShadow_377_2" result="shape"/>
</filter>
<filter id="filter1_dd_377_2" x="-20.1851" y="99.0524" width="1003.69" height="70.9119" filterUnits="userSpaceOnUse" color-interpolation-filters="sRGB">
<feFlood flood-opacity="0" result="BackgroundImageFix"/>
<feColorMatrix in="SourceAlpha" type="matrix" values="0 0 0 0 0 0 0 0 0 0 0 0 0 0 0 0 0 0 127 0" result="hardAlpha"/>
<feOffset dy="4"/>
<feGaussianBlur stdDeviation="2"/>
<feComposite in2="hardAlpha" operator="out"/>
<feColorMatrix type="matrix" values="0 0 0 0 0 0 0 0 0 0 0 0 0 0 0 0 0 0 0.25 0"/>
<feBlend mode="normal" in2="BackgroundImageFix" result="effect1_dropShadow_377_2"/>
<feColorMatrix in="SourceAlpha" type="matrix" values="0 0 0 0 0 0 0 0 0 0 0 0 0 0 0 0 0 0 127 0" result="hardAlpha"/>
<feOffset dy="4"/>
<feGaussianBlur stdDeviation="2"/>
<feComposite in2="hardAlpha" operator="out"/>
<feColorMatrix type="matrix" values="0 0 0 0 0 0 0 0 0 0 0 0 0 0 0 0 0 0 0.25 0"/>
<feBlend mode="normal" in2="effect1_dropShadow_377_2" result="effect2_dropShadow_377_2"/>
<feBlend mode="normal" in="SourceGraphic" in2="effect2_dropShadow_377_2" result="shape"/>
</filter>
<clipPath id="clip0_377_2">
<rect width="227.631" height="153.513" fill="white" transform="translate(924.5 116.832) rotate(-30.8808)"/>
</clipPath>
</defs>
</svg>
